  0
SECTION
  2
HEADER
  9
$ACADVER
  1
AC1015
  9
$ACADMAINTVER
 70
     6
  9
$DWGCODEPAGE
  3
ANSI_1252
  9
$INSBASE
 10
0.0
 20
0.0
 30
0.0
  9
$EXTMIN
 10
0.0
 20
0.0
 30
0.0
  9
$EXTMAX
 10
24.0
 20
12.0
 30
0.0
  9
$LIMMIN
 10
0.0
 20
0.0
  9
$LIMMAX
 10
24.0
 20
12.0
  9
$ORTHOMODE
 70
     0
  9
$REGENMODE
 70
     1
  9
$FILLMODE
 70
     1
  9
$QTEXTMODE
 70
     0
  9
$MIRRTEXT
 70
     1
  9
$LTSCALE
 40
1.0
  9
$ATTMODE
 70
     1
  9
$TEXTSIZE
 40
0.125
  9
$TRACEWID
 40
0.05
  9
$TEXTSTYLE
  7
Standard
  9
$CLAYER
  8
0
  9
$CELTYPE
  6
ByLayer
  9
$CECOLOR
 62
   256
  9
$CELTSCALE
 40
1.0
  9
$DISPSILH
 70
     0
  9
$DIMSCALE
 40
1.0
  9
$DIMASZ
 40
0.13
  9
$DIMEXO
 40
0.05
  9
$DIMDLI
 40
0.38
  9
$DIMRND
 40
0.0
  9
$DIMDLE
 40
0.0
  9
$DIMEXE
 40
0.125
  9
$DIMTP
 40
0.0
  9
$DIMTM
 40
0.0
  9
$DIMTXT
 40
0.125
  9
$DIMCEN
 40
0.09
  9
$DIMTSZ
 40
0.0
  9
$DIMTOL
 70
     0
  9
$DIMLIM
 70
     0
  9
$DIMTIH
 70
     1
  9
$DIMTOH
 70
     1
  9
$DIMSE1
 70
     0
  9
$DIMSE2
 70
     0
  9
$DIMTAD
 70
     0
  9
$DIMZIN
 70
     0
  9
$DIMBLK
  1

  9
$DIMASO
 70
     1
  9
$DIMSHO
 70
     1
  9
$DIMPOST
  1

  9
$DIMAPOST
  1

  9
$DIMALT
 70
     0
  9
$DIMALTD
 70
     2
  9
$DIMALTF
 40
25.4
  9
$DIMLFAC
 40
1.0
  9
$DIMTOFL
 70
     0
  9
$DIMTVP
 40
0.0
  9
$DIMTIX
 70
     0
  9
$DIMSOXD
 70
     0
  9
$DIMSAH
 70
     0
  9
$DIMBLK1
  1

  9
$DIMBLK2
  1

  9
$DIMSTYLE
  2
Standard
  9
$DIMCLRD
 70
     0
  9
$DIMCLRE
 70
     0
  9
$DIMCLRT
 70
     0
  9
$DIMTFAC
 40
1.0
  9
$DIMGAP
 40
0.06
  9
$DIMJUST
 70
     0
  9
$DIMSD1
 70
     0
  9
$DIMSD2
 70
     0
  9
$DIMTOLJ
 70
     1
  9
$DIMTZIN
 70
     0
  9
$DIMALTZ
 70
     0
  9
$DIMALTTZ
 70
     0
  9
$DIMUPT
 70
     0
  9
$DIMDEC
 70
     2
  9
$DIMTDEC
 70
     2
  9
$DIMALTU
 70
     2
  9
$DIMALTTD
 70
     2
  9
$DIMTXSTY
  7
Standard
  9
$DIMAUNIT
 70
     0
  9
$DIMADEC
 70
     2
  9
$DIMALTRND
 40
0.0
  9
$DIMAZIN
 70
     0
  9
$DIMDSEP
 70
    46
  9
$DIMATFIT
 70
     3
  9
$DIMFRAC
 70
     0
  9
$DIMLDRBLK
  1

  9
$DIMLUNIT
 70
     2
  9
$DIMLWD
 70
    -2
  9
$DIMLWE
 70
    -2
  9
$DIMTMOVE
 70
     0
  9
$LUNITS
 70
     2
  9
$LUPREC
 70
     2
  9
$SKETCHINC
 40
0.1
  9
$FILLETRAD
 40
0.5
  9
$AUNITS
 70
     0
  9
$AUPREC
 70
     2
  9
$MENU
  1
.
  9
$ELEVATION
 40
0.0
  9
$PELEVATION
 40
0.0
  9
$THICKNESS
 40
0.0
  9
$LIMCHECK
 70
     0
  9
$CHAMFERA
 40
0.0
  9
$CHAMFERB
 40
0.0
  9
$CHAMFERC
 40
0.0
  9
$CHAMFERD
 40
0.0
  9
$SKPOLY
 70
     0
  9
$TDCREATE
 40
2457414.714824803
  9
$TDUCREATE
 40
2457414.923158137
  9
$TDUPDATE
 40
2457414.714826204
  9
$TDUUPDATE
 40
2457414.923159537
  9
$TDINDWG
 40
0.0000000116
  9
$TDUSRTIMER
 40
0.0000000116
  9
$USRTIMER
 70
     1
  9
$ANGBASE
 50
0.0
  9
$ANGDIR
 70
     0
  9
$PDMODE
 70
     0
  9
$PDSIZE
 40
-1.0
  9
$PLINEWID
 40
0.0
  9
$SPLFRAME
 70
     0
  9
$SPLINETYPE
 70
     6
  9
$SPLINESEGS
 70
     8
  9
$HANDSEED
  5
1F9
  9
$SURFTAB1
 70
     6
  9
$SURFTAB2
 70
     6
  9
$SURFTYPE
 70
     6
  9
$SURFU
 70
     6
  9
$SURFV
 70
     6
  9
$UCSBASE
  2

  9
$UCSNAME
  2

  9
$UCSORG
 10
0.0
 20
0.0
 30
0.0
  9
$UCSXDIR
 10
1.0
 20
0.0
 30
0.0
  9
$UCSYDIR
 10
0.0
 20
1.0
 30
0.0
  9
$UCSORTHOREF
  2

  9
$UCSORTHOVIEW
 70
     0
  9
$UCSORGTOP
 10
0.0
 20
0.0
 30
0.0
  9
$UCSORGBOTTOM
 10
0.0
 20
0.0
 30
0.0
  9
$UCSORGLEFT
 10
0.0
 20
0.0
 30
0.0
  9
$UCSORGRIGHT
 10
0.0
 20
0.0
 30
0.0
  9
$UCSORGFRONT
 10
0.0
 20
0.0
 30
0.0
  9
$UCSORGBACK
 10
0.0
 20
0.0
 30
0.0
  9
$PUCSBASE
  2

  9
$PUCSNAME
  2

  9
$PUCSORG
 10
0.0
 20
0.0
 30
0.0
  9
$PUCSXDIR
 10
1.0
 20
0.0
 30
0.0
  9
$PUCSYDIR
 10
0.0
 20
1.0
 30
0.0
  9
$PUCSORTHOREF
  2

  9
$PUCSORTHOVIEW
 70
     0
  9
$PUCSORGTOP
 10
0.0
 20
0.0
 30
0.0
  9
$PUCSORGBOTTOM
 10
0.0
 20
0.0
 30
0.0
  9
$PUCSORGLEFT
 10
0.0
 20
0.0
 30
0.0
  9
$PUCSORGRIGHT
 10
0.0
 20
0.0
 30
0.0
  9
$PUCSORGFRONT
 10
0.0
 20
0.0
 30
0.0
  9
$PUCSORGBACK
 10
0.0
 20
0.0
 30
0.0
  9
$USERI1
 70
     0
  9
$USERI2
 70
     0
  9
$USERI3
 70
     0
  9
$USERI4
 70
     0
  9
$USERI5
 70
     0
  9
$USERR1
 40
0.0
  9
$USERR2
 40
0.0
  9
$USERR3
 40
0.0
  9
$USERR4
 40
0.0
  9
$USERR5
 40
0.0
  9
$WORLDVIEW
 70
     1
  9
$SHADEDGE
 70
     3
  9
$SHADEDIF
 70
    70
  9
$TILEMODE
 70
     1
  9
$MAXACTVP
 70
    64
  9
$PINSBASE
 10
0.0
 20
0.0
 30
0.0
  9
$PLIMCHECK
 70
     0
  9
$PEXTMIN
 10
1.0000000000E+20
 20
1.0000000000E+20
 30
1.0000000000E+20
  9
$PEXTMAX
 10
-1.0000000000E+20
 20
-1.0000000000E+20
 30
-1.0000000000E+20
  9
$PLIMMIN
 10
0.0
 20
0.0
  9
$PLIMMAX
 10
12.0
 20
9.0
  9
$UNITMODE
 70
     0
  9
$VISRETAIN
 70
     1
  9
$PLINEGEN
 70
     0
  9
$PSLTSCALE
 70
     1
  9
$TREEDEPTH
 70
  3020
  9
$CMLSTYLE
  2
Standard
  9
$CMLJUST
 70
     0
  9
$CMLSCALE
 40
1.0
  9
$PROXYGRAPHICS
 70
     1
  9
$MEASUREMENT
 70
     0
  9
$CELWEIGHT
370
    -1
  9
$ENDCAPS
280
     0
  9
$JOINSTYLE
280
     0
  9
$LWDISPLAY
290
     1
  9
$INSUNITS
 70
     1
  9
$HYPERLINKBASE
  1

  9
$STYLESHEET
  1

  9
$XEDIT
290
     1
  9
$CEPSNTYPE
380
     0
  9
$PSTYLEMODE
290
     1
  9
$FINGERPRINTGUID
  2
{6AA253B5-2891-4F3D-9050-07E8AC2160C5}
  9
$VERSIONGUID
  2
{FAEB1C32-E019-11D5-929B-00C0DF256EC4}
  9
$EXTNAMES
290
     1
  9
$PSVPSCALE
 40
0.0
  9
$OLESTARTUP
290
     0
  0
ENDSEC
  0
SECTION
  2
CLASSES
  0
CLASS
  1
ACDBDICTIONARYWDFLT
  2
AcDbDictionaryWithDefault
  3
ObjectDBX Classes
 90
        0
280
     0
281
     0
  0
CLASS
  1
VISUALSTYLE
  2
AcDbVisualStyle
  3
ObjectDBX Classes
 90
     4095
280
     0
281
     0
  0
CLASS
  1
MATERIAL
  2
AcDbMaterial
  3
ObjectDBX Classes
 90
     1153
280
     0
281
     0
  0
CLASS
  1
SCALE
  2
AcDbScale
  3
ObjectDBX Classes
 90
     1153
280
     0
281
     0
  0
CLASS
  1
TABLESTYLE
  2
AcDbTableStyle
  3
ObjectDBX Classes
 90
     4095
280
     0
281
     0
  0
CLASS
  1
MLEADERSTYLE
  2
AcDbMLeaderStyle
  3
ACDB_MLEADERSTYLE_CLASS
 90
     4095
280
     0
281
     0
  0
CLASS
  1
SUN
  2
AcDbSun
  3
SCENEOE
 90
     1153
280
     0
281
     0
  0
CLASS
  1
ACDBPLACEHOLDER
  2
AcDbPlaceHolder
  3
ObjectDBX Classes
 90
        0
280
     0
281
     0
  0
CLASS
  1
LAYOUT
  2
AcDbLayout
  3
ObjectDBX Classes
 90
        0
280
     0
281
     0
  0
ENDSEC
  0
SECTION
  2
TABLES
  0
TABLE
  2
VPORT
  5
8
330
0
100
AcDbSymbolTable
 70
     1
  0
VPORT
  5
29
330
8
100
AcDbSymbolTableRecord
100
AcDbViewportTableRecord
  2
*Active
 70
     0
 10
0.0
 20
0.0
 11
1.0
 21
1.0
 12
12.0
 22
6.0
 13
0.0
 23
0.0
 14
0.5
 24
0.5
 15
0.5
 25
0.5
 16
0.0
 26
0.0
 36
1.0
 17
0.0
 27
0.0
 37
0.0
 40
12.0
 41
2.0
 42
50.0
 43
0.0
 44
0.0
 50
0.0
 51
0.0
 71
     0
 72
  2000
 73
     1
 74
     3
 75
     0
 76
     0
 77
     0
 78
     0
281
     0
 65
     1
110
0.0
120
0.0
130
0.0
111
1.0
121
0.0
131
0.0
112
0.0
122
1.0
132
0.0
 79
     0
146
0.0
  0
ENDTAB
  0
TABLE
  2
LTYPE
  5
5
330
0
100
AcDbSymbolTable
 70
     6
  0
LTYPE
  5
14
330
5
100
AcDbSymbolTableRecord
100
AcDbLinetypeTableRecord
  2
ByBlock
 70
     0
  3

 72
    65
 73
     0
 40
0.0
  0
LTYPE
  5
15
330
5
100
AcDbSymbolTableRecord
100
AcDbLinetypeTableRecord
  2
ByLayer
 70
     0
  3

 72
    65
 73
     0
 40
0.0
  0
LTYPE
  5
16
330
5
100
AcDbSymbolTableRecord
100
AcDbLinetypeTableRecord
  2
Continuous
 70
     0
  3
Solid line
 72
    65
 73
     0
 40
0.0
  0
LTYPE
  5
6E
330
5
100
AcDbSymbolTableRecord
100
AcDbLinetypeTableRecord
  2
HIDDEN
 70
     0
  3
Hidden __ __ __ __ __ __ __ __ __ __ __ __ __ __
 72
    65
 73
     2
 40
0.075
 49
0.05
 74
     0
 49
-0.025
 74
     0
  0
LTYPE
  5
6F
330
5
100
AcDbSymbolTableRecord
100
AcDbLinetypeTableRecord
  2
PHANTOM
 70
     0
  3
Phantom ______  __  __  ______  __  __  ______
 72
    65
 73
     6
 40
0.5
 49
0.25
 74
     0
 49
-0.05
 74
     0
 49
0.05
 74
     0
 49
-0.05
 74
     0
 49
0.05
 74
     0
 49
-0.05
 74
     0
  0
LTYPE
  5
70
330
5
100
AcDbSymbolTableRecord
100
AcDbLinetypeTableRecord
  2
CENTER
 70
     0
  3
Center ____ _ ____ _ ____ _ ____ _ ____ _ ____
 72
    65
 73
     4
 40
0.4
 49
0.25
 74
     0
 49
-0.05
 74
     0
 49
0.05
 74
     0
 49
-0.05
 74
     0
  0
LTYPE
  5
71
330
5
100
AcDbSymbolTableRecord
100
AcDbLinetypeTableRecord
  2
CENTERX2
 70
     0
  3
Center (2x) ________  __  ________  __  _____
 72
    65
 73
     4
 40
0.8
 49
0.5
 74
     0
 49
-0.1
 74
     0
 49
0.1
 74
     0
 49
-0.1
 74
     0
  0
LTYPE
  5
72
330
5
100
AcDbSymbolTableRecord
100
AcDbLinetypeTableRecord
  2
DOT2
 70
     0
  3
Dot (.5x) ........................................
 72
    65
 73
     2
 40
0.025
 49
0.0
 74
     0
 49
-0.025
 74
     0
  0
ENDTAB
  0
TABLE
  2
LAYER
  5
2
330
0
100
AcDbSymbolTable
 70
     3
  0
LAYER
  5
10
330
2
100
AcDbSymbolTableRecord
100
AcDbLayerTableRecord
  2
0
 70
     0
 62
     7
  6
Continuous
370
    -3
390
F
  0
LAYER
  5
73
330
2
100
AcDbSymbolTableRecord
100
AcDbLayerTableRecord
  2
CUT
 70
     0
 62
     1
  6
Continuous
370
    -3
390
F
  0
LAYER
  5
74
330
2
100
AcDbSymbolTableRecord
100
AcDbLayerTableRecord
  2
ENGRAVE
 70
     0
 62
     7
  6
Continuous
370
    -3
390
F
  0
ENDTAB
  0
TABLE
  2
STYLE
  5
3
330
0
100
AcDbSymbolTable
 70
     1
  0
STYLE
  5
11
330
3
100
AcDbSymbolTableRecord
100
AcDbTextStyleTableRecord
  2
Standard
 70
     0
 40
0.0
 41
1.0
 50
0.0
 71
     0
 42
0.125
  3
txt
  4

  0
ENDTAB
  0
TABLE
  2
VIEW
  5
6
330
0
100
AcDbSymbolTable
 70
     0
  0
ENDTAB
  0
TABLE
  2
UCS
  5
7
330
0
100
AcDbSymbolTable
 70
     0
  0
ENDTAB
  0
TABLE
  2
APPID
  5
9
330
0
100
AcDbSymbolTable
 70
     1
  0
APPID
  5
12
330
9
100
AcDbSymbolTableRecord
100
AcDbRegAppTableRecord
  2
ACAD
 70
     0
  0
ENDTAB
  0
TABLE
  2
DIMSTYLE
  5
A
330
0
100
AcDbSymbolTable
 70
     1
100
AcDbDimStyleTable
  0
DIMSTYLE
105
27
330
A
100
AcDbSymbolTableRecord
100
AcDbDimStyleTableRecord
  2
Standard
 70
     0
178
     0
340
11
  0
ENDTAB
  0
TABLE
  2
BLOCK_RECORD
  5
1
330
0
100
AcDbSymbolTable
 70
     1
  0
BLOCK_RECORD
  5
1F
330
1
100
AcDbSymbolTableRecord
100
AcDbBlockTableRecord
  2
*Model_Space
340
22
  0
BLOCK_RECORD
  5
1B
330
1
100
AcDbSymbolTableRecord
100
AcDbBlockTableRecord
  2
*Paper_Space
340
1E
  0
BLOCK_RECORD
  5
23
330
1
100
AcDbSymbolTableRecord
100
AcDbBlockTableRecord
  2
*Paper_Space0
340
26
  0
ENDTAB
  0
ENDSEC
  0
SECTION
  2
BLOCKS
  0
BLOCK
  5
20
330
1F
100
AcDbEntity
  8
0
100
AcDbBlockBegin
  2
*Model_Space
 70
     0
 10
0.0
 20
0.0
 30
0.0
  3
*Model_Space
  1

  0
ENDBLK
  5
21
330
1F
100
AcDbEntity
  8
0
100
AcDbBlockEnd
  0
BLOCK
  5
1C
330
1B
100
AcDbEntity
 67
     1
  8
0
100
AcDbBlockBegin
  2
*Paper_Space
 70
     0
 10
0.0
 20
0.0
 30
0.0
  3
*Paper_Space
  1

  0
ENDBLK
  5
1D
330
1B
100
AcDbEntity
 67
     1
  8
0
100
AcDbBlockEnd
  0
BLOCK
  5
24
330
23
100
AcDbEntity
  8
0
100
AcDbBlockBegin
  2
*Paper_Space0
 70
     0
 10
0.0
 20
0.0
 30
0.0
  3
*Paper_Space0
  1

  0
ENDBLK
  5
25
330
23
100
AcDbEntity
  8
0
100
AcDbBlockEnd
  0
ENDSEC
  0
SECTION
  2
ENTITIES
  0
ARC
  5
75
330
1F
100
AcDbEntity
  8
CUT
  6
Continuous
370
    15
100
AcDbCircle
 10
10.431824451
 20
5.4016297578
 30
0.0
 40
0.0624999999999993
100
AcDbArc
 50
225.0
 51
45.0
  0
LINE
  5
76
330
1F
100
AcDbEntity
  8
CUT
  6
Continuous
370
    15
100
AcDbLine
 10
10.2550477557
 20
5.6667948008
 30
0.0
 11
10.4760186248
 21
5.4458239316
 31
0.0
  0
ARC
  5
77
330
1F
100
AcDbEntity
  8
CUT
  6
Continuous
370
    15
100
AcDbCircle
 10
10.2108535819
 20
5.6226006269
 30
0.0
 40
0.0624999999999999
100
AcDbArc
 50
45.0
 51
225.0
  0
LINE
  5
78
330
1F
100
AcDbEntity
  8
CUT
  6
Continuous
370
    15
100
AcDbLine
 10
10.3876302772
 20
5.357435584
 30
0.0
 11
10.1666594081
 21
5.5784064531
 31
0.0
  0
ARC
  5
79
330
1F
100
AcDbEntity
  8
CUT
  6
Continuous
370
    15
100
AcDbCircle
 10
9.1635186248
 20
6.669935584
 30
0.0
 40
0.0624999999999993
100
AcDbArc
 50
225.0
 51
45.0
  0
LINE
  5
7A
330
1F
100
AcDbEntity
  8
CUT
  6
Continuous
370
    15
100
AcDbLine
 10
8.9867419295
 20
6.9351006269
 30
0.0
 11
9.2077127986
 21
6.7141297578
 31
0.0
  0
ARC
  5
7B
330
1F
100
AcDbEntity
  8
CUT
  6
Continuous
370
    15
100
AcDbCircle
 10
8.9425477557
 20
6.8909064531
 30
0.0
 40
0.0624999999999993
100
AcDbArc
 50
45.0
 51
225.0
  0
LINE
  5
7C
330
1F
100
AcDbEntity
  8
CUT
  6
Continuous
370
    15
100
AcDbLine
 10
9.119324451
 20
6.6257414102
 30
0.0
 11
8.8983535819
 21
6.8467122793
 31
0.0
  0
LINE
  5
7D
330
1F
100
AcDbEntity
  8
CUT
  6
Continuous
370
    15
100
AcDbLine
 10
3.1820842147
 20
3.1354040428
 30
0.0
 11
3.4945842147
 21
3.1354040428
 31
0.0
  0
ARC
  5
7E
330
1F
100
AcDbEntity
  8
CUT
  6
Continuous
370
    15
100
AcDbCircle
 10
3.1820842147
 20
3.0729040428
 30
0.0
 40
0.0625
100
AcDbArc
 50
90.0
 51
270.0
  0
LINE
  5
7F
330
1F
100
AcDbEntity
  8
CUT
  6
Continuous
370
    15
100
AcDbLine
 10
3.4945842147
 20
3.0104040428
 30
0.0
 11
3.1820842147
 21
3.0104040428
 31
0.0
  0
ARC
  5
80
330
1F
100
AcDbEntity
  8
CUT
  6
Continuous
370
    15
100
AcDbCircle
 10
3.4945842147
 20
3.0729040428
 30
0.0
 40
0.0625
100
AcDbArc
 50
270.0
 51
90.0
  0
LINE
  5
81
330
1F
100
AcDbEntity
  8
CUT
  6
Continuous
370
    15
100
AcDbLine
 10
4.9320842147
 20
3.1354040428
 30
0.0
 11
5.2445842147
 21
3.1354040428
 31
0.0
  0
ARC
  5
82
330
1F
100
AcDbEntity
  8
CUT
  6
Continuous
370
    15
100
AcDbCircle
 10
4.9320842147
 20
3.0729040428
 30
0.0
 40
0.0625000000000004
100
AcDbArc
 50
90.0
 51
270.0
  0
LINE
  5
83
330
1F
100
AcDbEntity
  8
CUT
  6
Continuous
370
    15
100
AcDbLine
 10
5.2445842147
 20
3.0104040428
 30
0.0
 11
4.9320842147
 21
3.0104040428
 31
0.0
  0
ARC
  5
84
330
1F
100
AcDbEntity
  8
CUT
  6
Continuous
370
    15
100
AcDbCircle
 10
5.2445842147
 20
3.0729040428
 30
0.0
 40
0.0625000000000004
100
AcDbArc
 50
270.0
 51
90.0
  0
LINE
  5
85
330
1F
100
AcDbEntity
  8
CUT
  6
Continuous
370
    15
100
AcDbLine
 10
3.1820842147
 20
3.7604040428
 30
0.0
 11
3.4945842147
 21
3.7604040428
 31
0.0
  0
ARC
  5
86
330
1F
100
AcDbEntity
  8
CUT
  6
Continuous
370
    15
100
AcDbCircle
 10
3.1820842147
 20
3.6979040428
 30
0.0
 40
0.0625
100
AcDbArc
 50
90.0
 51
270.0
  0
LINE
  5
87
330
1F
100
AcDbEntity
  8
CUT
  6
Continuous
370
    15
100
AcDbLine
 10
3.4945842147
 20
3.6354040428
 30
0.0
 11
3.1820842147
 21
3.6354040428
 31
0.0
  0
ARC
  5
88
330
1F
100
AcDbEntity
  8
CUT
  6
Continuous
370
    15
100
AcDbCircle
 10
3.4945842147
 20
3.6979040428
 30
0.0
 40
0.0625
100
AcDbArc
 50
270.0
 51
90.0
  0
LINE
  5
89
330
1F
100
AcDbEntity
  8
CUT
  6
Continuous
370
    15
100
AcDbLine
 10
4.9320842147
 20
3.7604040428
 30
0.0
 11
5.2445842147
 21
3.7604040428
 31
0.0
  0
ARC
  5
8A
330
1F
100
AcDbEntity
  8
CUT
  6
Continuous
370
    15
100
AcDbCircle
 10
4.9320842147
 20
3.6979040428
 30
0.0
 40
0.0625000000000004
100
AcDbArc
 50
90.0
 51
270.0
  0
LINE
  5
8B
330
1F
100
AcDbEntity
  8
CUT
  6
Continuous
370
    15
100
AcDbLine
 10
5.2445842147
 20
3.6354040428
 30
0.0
 11
4.9320842147
 21
3.6354040428
 31
0.0
  0
ARC
  5
8C
330
1F
100
AcDbEntity
  8
CUT
  6
Continuous
370
    15
100
AcDbCircle
 10
5.2445842147
 20
3.6979040428
 30
0.0
 40
0.0625000000000004
100
AcDbArc
 50
270.0
 51
90.0
  0
CIRCLE
  5
8D
330
1F
100
AcDbEntity
  8
CUT
  6
Continuous
370
    15
100
AcDbCircle
 10
6.8057493365
 20
6.6891783278
 30
0.0
 40
0.0445000000000002
  0
CIRCLE
  5
8E
330
1F
100
AcDbEntity
  8
CUT
  6
Continuous
370
    15
100
AcDbCircle
 10
4.1738595727
 20
2.6327616476
 30
0.0
 40
0.0445000000000002
  0
CIRCLE
  5
8F
330
1F
100
AcDbEntity
  8
CUT
  6
Continuous
370
    15
100
AcDbCircle
 10
4.1738595727
 20
0.742997868
 30
0.0
 40
0.0444999999999993
  0
CIRCLE
  5
90
330
1F
100
AcDbEntity
  8
CUT
  6
Continuous
370
    15
100
AcDbCircle
 10
8.3077178404
 20
0.742997868
 30
0.0
 40
0.0444999999999993
  0
CIRCLE
  5
91
330
1F
100
AcDbEntity
  8
CUT
  6
Continuous
370
    15
100
AcDbCircle
 10
8.3077178404
 20
2.6327616476
 30
0.0
 40
0.0445000000000011
  0
CIRCLE
  5
92
330
1F
100
AcDbEntity
  8
CUT
  6
Continuous
370
    15
100
AcDbCircle
 10
8.1634993365
 20
4.3186783278
 30
0.0
 40
0.0444999999999993
  0
CIRCLE
  5
93
330
1F
100
AcDbEntity
  8
CUT
  6
Continuous
370
    15
100
AcDbCircle
 10
7.7134993365
 20
4.3186783278
 30
0.0
 40
0.0445000000000002
  0
CIRCLE
  5
94
330
1F
100
AcDbEntity
  8
CUT
  6
Continuous
370
    15
100
AcDbCircle
 10
8.5759993365
 20
6.6266783278
 30
0.0
 40
0.0444999999999993
  0
CIRCLE
  5
95
330
1F
100
AcDbEntity
  8
CUT
  6
Continuous
370
    15
100
AcDbCircle
 10
7.3009993365
 20
6.6266783278
 30
0.0
 40
0.0445000000000002
  0
CIRCLE
  5
96
330
1F
100
AcDbEntity
  8
CUT
  6
Continuous
370
    15
100
AcDbCircle
 10
2.4937414624
 20
6.8834210964
 30
0.0
 40
0.0444999999999998
  0
CIRCLE
  5
97
330
1F
100
AcDbEntity
  8
CUT
  6
Continuous
370
    15
100
AcDbCircle
 10
2.4937414624
 20
1.6668856633
 30
0.0
 40
0.0444999999999998
  0
CIRCLE
  5
98
330
1F
100
AcDbEntity
  8
CUT
  6
Continuous
370
    15
100
AcDbCircle
 10
8.6748438247
 20
0.7613738523
 30
0.0
 40
0.0444999999999993
  0
CIRCLE
  5
99
330
1F
100
AcDbEntity
  8
CUT
  6
Continuous
370
    15
100
AcDbCircle
 10
8.6748438247
 20
6.8834210964
 30
0.0
 40
0.0444999999999993
  0
CIRCLE
  5
9A
330
1F
100
AcDbEntity
  8
CUT
  6
Continuous
370
    15
100
AcDbCircle
 10
10.4472355569
 20
3.0141297578
 30
0.0
 40
0.0445000000000011
  0
CIRCLE
  5
9B
330
1F
100
AcDbEntity
  8
CUT
  6
Continuous
370
    15
100
AcDbCircle
 10
11.3472355569
 20
3.0141297578
 30
0.0
 40
0.0445000000000011
  0
CIRCLE
  5
9C
330
1F
100
AcDbEntity
  8
CUT
  6
Continuous
370
    15
100
AcDbCircle
 10
11.3472355569
 20
4.4141297578
 30
0.0
 40
0.0445000000000011
  0
CIRCLE
  5
9D
330
1F
100
AcDbEntity
  8
CUT
  6
Continuous
370
    15
100
AcDbCircle
 10
10.4472355569
 20
4.4141297578
 30
0.0
 40
0.0445000000000011
  0
CIRCLE
  5
9E
330
1F
100
AcDbEntity
  8
CUT
  6
Continuous
370
    15
100
AcDbCircle
 10
3.2811430373
 20
1.4109801515
 30
0.0
 40
0.0642499999999995
  0
CIRCLE
  5
9F
330
1F
100
AcDbEntity
  8
CUT
  6
Continuous
370
    15
100
AcDbCircle
 10
7.8874422498
 20
1.4109801515
 30
0.0
 40
0.0642499999999995
  0
CIRCLE
  5
A0
330
1F
100
AcDbEntity
  8
CUT
  6
Continuous
370
    15
100
AcDbCircle
 10
3.2811430373
 20
6.0172793641
 30
0.0
 40
0.0642499999999995
  0
CIRCLE
  5
A1
330
1F
100
AcDbEntity
  8
CUT
  6
Continuous
370
    15
100
AcDbCircle
 10
7.8874422498
 20
6.0172793641
 30
0.0
 40
0.0642499999999995
  0
CIRCLE
  5
A2
330
1F
100
AcDbEntity
  8
CUT
  6
Continuous
370
    15
100
AcDbCircle
 10
9.0842926435
 20
1.2141297578
 30
0.0
 40
0.0642499999999995
  0
CIRCLE
  5
A3
330
1F
100
AcDbEntity
  8
CUT
  6
Continuous
370
    15
100
AcDbCircle
 10
9.0842926435
 20
6.2141297578
 30
0.0
 40
0.0642499999999995
  0
CIRCLE
  5
A4
330
1F
100
AcDbEntity
  8
CUT
  6
Continuous
370
    15
100
AcDbCircle
 10
2.0842926435
 20
1.2141297578
 30
0.0
 40
0.0642499999999999
  0
CIRCLE
  5
A5
330
1F
100
AcDbEntity
  8
CUT
  6
Continuous
370
    15
100
AcDbCircle
 10
2.0842926435
 20
6.2141297578
 30
0.0
 40
0.0642499999999999
  0
CIRCLE
  5
A6
330
1F
100
AcDbEntity
  8
CUT
  6
Continuous
370
    15
100
AcDbCircle
 10
10.197496161
 20
3.7141297578
 30
0.0
 40
0.0642499999999995
  0
CIRCLE
  5
A7
330
1F
100
AcDbEntity
  8
CUT
  6
Continuous
370
    15
100
AcDbCircle
 10
11.418321711
 20
2.3391297578
 30
0.0
 40
0.0642499999999995
  0
CIRCLE
  5
A8
330
1F
100
AcDbEntity
  8
CUT
  6
Continuous
370
    15
100
AcDbCircle
 10
11.418321711
 20
5.0891297578
 30
0.0
 40
0.0642499999999995
  0
CIRCLE
  5
A9
330
1F
100
AcDbEntity
  8
CUT
  6
Continuous
370
    15
100
AcDbCircle
 10
13.418321711
 20
2.3391297578
 30
0.0
 40
0.0642499999999977
  0
CIRCLE
  5
AA
330
1F
100
AcDbEntity
  8
CUT
  6
Continuous
370
    15
100
AcDbCircle
 10
13.418321711
 20
5.0891297578
 30
0.0
 40
0.0642499999999977
  0
CIRCLE
  5
AB
330
1F
100
AcDbEntity
  8
CUT
  6
Continuous
370
    15
100
AcDbCircle
 10
1.2594894939
 20
4.3391297578
 30
0.0
 40
0.0642499999999999
  0
CIRCLE
  5
AC
330
1F
100
AcDbEntity
  8
CUT
  6
Continuous
370
    15
100
AcDbCircle
 10
1.2594894939
 20
3.0891297578
 30
0.0
 40
0.0642499999999999
  0
CIRCLE
  5
AD
330
1F
100
AcDbEntity
  8
CUT
  6
Continuous
370
    15
100
AcDbCircle
 10
14.0094894939
 20
3.0891297578
 30
0.0
 40
0.0642500000000013
  0
CIRCLE
  5
AE
330
1F
100
AcDbEntity
  8
CUT
  6
Continuous
370
    15
100
AcDbCircle
 10
14.0094894939
 20
4.3391297578
 30
0.0
 40
0.0642500000000013
  0
ARC
  5
AF
330
1F
100
AcDbEntity
  8
CUT
  6
Continuous
370
    15
100
AcDbCircle
 10
1.2294894939
 20
6.2141297578
 30
0.0
 40
1.0
100
AcDbArc
 50
90.0
 51
180.0
  0
LINE
  5
B0
330
1F
100
AcDbEntity
  8
CUT
  6
Continuous
370
    15
100
AcDbLine
 10
8.6773827128
 20
7.2141297578
 30
0.0
 11
1.2294894939
 21
7.2141297578
 31
0.0
  0
ARC
  5
B1
330
1F
100
AcDbEntity
  8
CUT
  6
Continuous
370
    15
100
AcDbCircle
 10
8.6773827128
 20
6.7141297578
 30
0.0
 40
0.5
100
AcDbArc
 50
45.0
 51
90.0
  0
LINE
  5
B2
330
1F
100
AcDbEntity
  8
CUT
  6
Continuous
370
    15
100
AcDbLine
 10
10.6130428845
 20
5.4855763672
 30
0.0
 11
9.0309361033
 21
7.0676831484
 31
0.0
  0
ARC
  5
B3
330
1F
100
AcDbEntity
  8
CUT
  6
Continuous
370
    15
100
AcDbCircle
 10
10.9665962751
 20
5.8391297578
 30
0.0
 40
0.4999999999999996
100
AcDbArc
 50
225.0
 51
270.0
  0
LINE
  5
B4
330
1F
100
AcDbEntity
  8
CUT
  6
Continuous
370
    15
100
AcDbLine
 10
13.6144088601
 20
5.3391297578
 30
0.0
 11
10.9665962751
 21
5.3391297578
 31
0.0
  0
ARC
  5
B5
330
1F
100
AcDbEntity
  8
CUT
  6
Continuous
370
    15
100
AcDbCircle
 10
13.6144088601
 20
5.0891297578
 30
0.0
 40
0.2500000000000009
100
AcDbArc
 50
29.7448812969
 51
90.0
  0
LINE
  5
B6
330
1F
100
AcDbEntity
  8
CUT
  6
Continuous
370
    15
100
AcDbLine
 10
14.1875093423
 20
4.5900950232
 30
0.0
 11
13.8314696456
 21
5.2131644924
 31
0.0
  0
ARC
  5
B7
330
1F
100
AcDbEntity
  8
CUT
  6
Continuous
370
    15
100
AcDbCircle
 10
14.4045701278
 20
4.7141297578
 30
0.0
 40
0.25
100
AcDbArc
 50
209.7448812969
 51
270.0
  0
LINE
  5
B8
330
1F
100
AcDbEntity
  8
CUT
  6
Continuous
370
    15
100
AcDbLine
 10
15.0094894939
 20
4.4641297578
 30
0.0
 11
14.4045701278
 21
4.4641297578
 31
0.0
  0
ARC
  5
B9
330
1F
100
AcDbEntity
  8
CUT
  6
Continuous
370
    15
100
AcDbCircle
 10
15.0094894939
 20
4.2141297578
 30
0.0
 40
0.2500000000000018
100
AcDbArc
 50
0.0
 51
90.0
  0
LINE
  5
BA
330
1F
100
AcDbEntity
  8
CUT
  6
Continuous
370
    15
100
AcDbLine
 10
15.2594894939
 20
3.2141297578
 30
0.0
 11
15.2594894939
 21
4.2141297578
 31
0.0
  0
ARC
  5
BB
330
1F
100
AcDbEntity
  8
CUT
  6
Continuous
370
    15
100
AcDbCircle
 10
15.0094894939
 20
3.2141297578
 30
0.0
 40
0.2500000000000018
100
AcDbArc
 50
270.0
 51
0.0
  0
LINE
  5
BC
330
1F
100
AcDbEntity
  8
CUT
  6
Continuous
370
    15
100
AcDbLine
 10
15.0094894939
 20
2.9641297578
 30
0.0
 11
14.4045701278
 21
2.9641297578
 31
0.0
  0
ARC
  5
BD
330
1F
100
AcDbEntity
  8
CUT
  6
Continuous
370
    15
100
AcDbCircle
 10
14.4045701278
 20
2.7141297578
 30
0.0
 40
0.25
100
AcDbArc
 50
90.0
 51
150.2551187031
  0
LINE
  5
BE
330
1F
100
AcDbEntity
  8
CUT
  6
Continuous
370
    15
100
AcDbLine
 10
13.8314696456
 20
2.2150950232
 30
0.0
 11
14.1875093423
 21
2.8381644924
 31
0.0
  0
ARC
  5
BF
330
1F
100
AcDbEntity
  8
CUT
  6
Continuous
370
    15
100
AcDbCircle
 10
13.6144088601
 20
2.3391297578
 30
0.0
 40
0.2500000000000004
100
AcDbArc
 50
270.0
 51
330.2551187031
  0
LINE
  5
C0
330
1F
100
AcDbEntity
  8
CUT
  6
Continuous
370
    15
100
AcDbLine
 10
13.6144088601
 20
2.0891297578
 30
0.0
 11
10.9665962751
 21
2.0891297578
 31
0.0
  0
ARC
  5
C1
330
1F
100
AcDbEntity
  8
CUT
  6
Continuous
370
    15
100
AcDbCircle
 10
10.9665962751
 20
1.5891297578
 30
0.0
 40
0.5000000000000002
100
AcDbArc
 50
90.0
 51
135.0
  0
LINE
  5
C2
330
1F
100
AcDbEntity
  8
CUT
  6
Continuous
370
    15
100
AcDbLine
 10
10.6130428845
 20
1.9426831484
 30
0.0
 11
9.0309361033
 21
0.3605763672
 31
0.0
  0
ARC
  5
C3
330
1F
100
AcDbEntity
  8
CUT
  6
Continuous
370
    15
100
AcDbCircle
 10
8.6773827128
 20
0.7141297578
 30
0.0
 40
0.5000000000000007
100
AcDbArc
 50
270.0
 51
315.0
  0
LINE
  5
C4
330
1F
100
AcDbEntity
  8
CUT
  6
Continuous
370
    15
100
AcDbLine
 10
8.6773827128
 20
0.2141297578
 30
0.0
 11
1.2294894939
 21
0.2141297578
 31
0.0
  0
ARC
  5
C5
330
1F
100
AcDbEntity
  8
CUT
  6
Continuous
370
    15
100
AcDbCircle
 10
1.2294894939
 20
1.2141297578
 30
0.0
 40
1.0
100
AcDbArc
 50
180.0
 51
270.0
  0
LINE
  5
C6
330
1F
100
AcDbEntity
  8
CUT
  6
Continuous
370
    15
100
AcDbLine
 10
0.2294894939
 20
6.2141297578
 30
0.0
 11
0.2294894939
 21
1.2141297578
 31
0.0
  0
LINE
  5
C7
330
1F
100
AcDbEntity
  8
CUT
  6
Continuous
370
    15
100
AcDbLine
 10
11.5097355569
 20
4.5999565295
 30
0.0
 11
11.5097355569
 21
2.8283029862
 31
0.0
  0
ARC
  5
C8
330
1F
100
AcDbEntity
  8
CUT
  6
Continuous
370
    15
100
AcDbCircle
 10
11.6394107538
 20
2.8283029862
 30
0.0
 40
0.1296751968503962
100
AcDbArc
 50
180.0
 51
270.0
  0
LINE
  5
C9
330
1F
100
AcDbEntity
  8
CUT
  6
Continuous
370
    15
100
AcDbLine
 10
11.6394107538
 20
2.6986277893
 30
0.0
 11
13.4110642971
 21
2.6986277893
 31
0.0
  0
ARC
  5
CA
330
1F
100
AcDbEntity
  8
CUT
  6
Continuous
370
    15
100
AcDbCircle
 10
13.4110642971
 20
2.8283029862
 30
0.0
 40
0.1296751968503944
100
AcDbArc
 50
270.0
 51
0.0
  0
LINE
  5
CB
330
1F
100
AcDbEntity
  8
CUT
  6
Continuous
370
    15
100
AcDbLine
 10
13.5407394939
 20
2.8283029862
 30
0.0
 11
13.5407394939
 21
4.5999565295
 31
0.0
  0
ARC
  5
CC
330
1F
100
AcDbEntity
  8
CUT
  6
Continuous
370
    15
100
AcDbCircle
 10
13.4110642971
 20
4.5999565295
 30
0.0
 40
0.1296751968503944
100
AcDbArc
 50
0.0
 51
90.0
  0
LINE
  5
CD
330
1F
100
AcDbEntity
  8
CUT
  6
Continuous
370
    15
100
AcDbLine
 10
13.4110642971
 20
4.7296317263
 30
0.0
 11
11.6394107538
 21
4.7296317263
 31
0.0
  0
ARC
  5
CE
330
1F
100
AcDbEntity
  8
CUT
  6
Continuous
370
    15
100
AcDbCircle
 10
11.6394107538
 20
4.5999565295
 30
0.0
 40
0.1296751968503962
100
AcDbArc
 50
90.0
 51
180.0
  0
ARC
  5
CF
330
1F
100
AcDbEntity
  8
CUT
  6
Continuous
370
    15
100
AcDbCircle
 10
1.1044894939
 20
2.7141297578
 30
0.0
 40
0.125
100
AcDbArc
 50
90.0
 51
180.0
  0
LINE
  5
D0
330
1F
100
AcDbEntity
  8
CUT
  6
Continuous
370
    15
100
AcDbLine
 10
0.9794894939
 20
1.9041297578
 30
0.0
 11
0.9794894939
 21
2.7141297578
 31
0.0
  0
ARC
  5
D1
330
1F
100
AcDbEntity
  8
CUT
  6
Continuous
370
    15
100
AcDbCircle
 10
1.1044894939
 20
1.9041297578
 30
0.0
 40
0.1250000000000014
100
AcDbArc
 50
180.0
 51
270.0
  0
LINE
  5
D2
330
1F
100
AcDbEntity
  8
CUT
  6
Continuous
370
    15
100
AcDbLine
 10
2.2144894939
 20
1.7791297578
 30
0.0
 11
1.1044894939
 21
1.7791297578
 31
0.0
  0
ARC
  5
D3
330
1F
100
AcDbEntity
  8
CUT
  6
Continuous
370
    15
100
AcDbCircle
 10
2.2144894939
 20
1.9041297578
 30
0.0
 40
0.1250000000000018
100
AcDbArc
 50
270.0
 51
0.0
  0
LINE
  5
D4
330
1F
100
AcDbEntity
  8
CUT
  6
Continuous
370
    15
100
AcDbLine
 10
2.3394894939
 20
2.7141297578
 30
0.0
 11
2.3394894939
 21
1.9041297578
 31
0.0
  0
ARC
  5
D5
330
1F
100
AcDbEntity
  8
CUT
  6
Continuous
370
    15
100
AcDbCircle
 10
2.2144894939
 20
2.7141297578
 30
0.0
 40
0.1250000000000018
100
AcDbArc
 50
0.0
 51
90.0
  0
LINE
  5
D6
330
1F
100
AcDbEntity
  8
CUT
  6
Continuous
370
    15
100
AcDbLine
 10
2.2144894939
 20
2.8391297578
 30
0.0
 11
1.1044894939
 21
2.8391297578
 31
0.0
  0
ARC
  5
D7
330
1F
100
AcDbEntity
  8
CUT
  6
Continuous
370
    15
100
AcDbCircle
 10
2.2144894939
 20
5.5241297578
 30
0.0
 40
0.1250000000000018
100
AcDbArc
 50
0.0
 51
90.0
  0
LINE
  5
D8
330
1F
100
AcDbEntity
  8
CUT
  6
Continuous
370
    15
100
AcDbLine
 10
2.2144894939
 20
5.6491297578
 30
0.0
 11
1.1044894939
 21
5.6491297578
 31
0.0
  0
ARC
  5
D9
330
1F
100
AcDbEntity
  8
CUT
  6
Continuous
370
    15
100
AcDbCircle
 10
1.1044894939
 20
5.5241297578
 30
0.0
 40
0.1250000000000014
100
AcDbArc
 50
90.0
 51
180.0
  0
LINE
  5
DA
330
1F
100
AcDbEntity
  8
CUT
  6
Continuous
370
    15
100
AcDbLine
 10
0.9794894939
 20
4.7141297578
 30
0.0
 11
0.9794894939
 21
5.5241297578
 31
0.0
  0
ARC
  5
DB
330
1F
100
AcDbEntity
  8
CUT
  6
Continuous
370
    15
100
AcDbCircle
 10
1.1044894939
 20
4.7141297578
 30
0.0
 40
0.125
100
AcDbArc
 50
180.0
 51
270.0
  0
LINE
  5
DC
330
1F
100
AcDbEntity
  8
CUT
  6
Continuous
370
    15
100
AcDbLine
 10
2.2144894939
 20
4.5891297578
 30
0.0
 11
1.1044894939
 21
4.5891297578
 31
0.0
  0
ARC
  5
DD
330
1F
100
AcDbEntity
  8
CUT
  6
Continuous
370
    15
100
AcDbCircle
 10
2.2144894939
 20
4.7141297578
 30
0.0
 40
0.1250000000000018
100
AcDbArc
 50
270.0
 51
0.0
  0
LINE
  5
DE
330
1F
100
AcDbEntity
  8
CUT
  6
Continuous
370
    15
100
AcDbLine
 10
2.3394894939
 20
4.7141297578
 30
0.0
 11
2.3394894939
 21
5.5241297578
 31
0.0
  0
CIRCLE
  5
DF
330
1F
100
AcDbEntity
  8
CUT
  6
Continuous
370
    15
100
AcDbCircle
 10
2.8057493365
 20
4.1891783278
 30
0.0
 40
0.0445000000000002
  0
CIRCLE
  5
E0
330
1F
100
AcDbEntity
  8
CUT
  6
Continuous
370
    15
100
AcDbCircle
 10
6.8057493365
 20
4.1891783278
 30
0.0
 40
0.0445000000000002
  0
CIRCLE
  5
E1
330
1F
100
AcDbEntity
  8
CUT
  6
Continuous
370
    15
100
AcDbCircle
 10
2.8057493365
 20
6.6891783278
 30
0.0
 40
0.0445000000000002
  0
CIRCLE
  5
E2
330
1F
100
AcDbEntity
  8
CUT
  6
Continuous
370
    15
100
AcDbCircle
 10
14.7594894939
 20
3.7141297578
 30
0.0
 40
0.1329999999999991
  0
CIRCLE
  5
E3
330
1F
100
AcDbEntity
  8
CUT
  6
Continuous
370
    15
100
AcDbCircle
 10
14.7594894939
 20
4.2141297578
 30
0.0
 40
0.0642499999999995
  0
CIRCLE
  5
E4
330
1F
100
AcDbEntity
  8
CUT
  6
Continuous
370
    15
100
AcDbCircle
 10
14.7594894939
 20
3.2141297578
 30
0.0
 40
0.0642499999999995
  0
CIRCLE
  5
E5
330
1F
100
AcDbEntity
  8
CUT
  6
Continuous
370
    15
100
AcDbCircle
 10
1.9134789126
 20
6.7301483556
 30
0.0
 40
0.1249999999999993
  0
CIRCLE
  5
E6
330
1F
100
AcDbEntity
  8
CUT
  6
Continuous
370
    15
100
AcDbCircle
 10
1.9134789126
 20
0.69811116
 30
0.0
 40
0.1249999999999993
  0
LINE
  5
E7
330
1F
100
AcDbEntity
  8
CUT
  6
Continuous
370
    15
100
AcDbLine
 10
9.2392504332
 20
4.7157512542
 30
0.0
 11
9.2408732432
 21
4.2161599189
 31
0.0
  0
ARC
  5
E8
330
1F
100
AcDbEntity
  8
CUT
  6
Continuous
370
    15
100
AcDbCircle
 10
9.6191300909
 20
4.2173886011
 30
0.0
 40
0.3782588432960594
100
AcDbArc
 50
180.1861117862
 51
359.8138882138
  0
LINE
  5
E9
330
1F
100
AcDbEntity
  8
CUT
  6
Continuous
370
    15
100
AcDbLine
 10
9.9973869387
 20
4.2161599189
 30
0.0
 11
9.9990097486
 21
4.7157512542
 31
0.0
  0
ARC
  5
EA
330
1F
100
AcDbEntity
  8
CUT
  6
Continuous
370
    15
100
AcDbCircle
 10
9.6191300909
 20
4.7505472776
 30
0.0
 40
0.3814699432445979
100
AcDbArc
 50
354.7664544335
 51
185.2335455665
  0
LINE
  5
EB
330
1F
100
AcDbEntity
  8
CUT
  6
Continuous
370
    15
100
AcDbLine
 10
9.9925132332
 20
2.7157618055
 30
0.0
 11
9.9941281126
 21
3.2129116612
 31
0.0
  0
LINE
  5
EC
330
1F
100
AcDbEntity
  8
CUT
  6
Continuous
370
    15
100
AcDbLine
 10
9.2441320693
 20
3.2129116612
 30
0.0
 11
9.2457469486
 21
2.7157618055
 31
0.0
  0
ARC
  5
ED
330
1F
100
AcDbEntity
  8
CUT
  6
Continuous
370
    15
100
AcDbCircle
 10
9.6191300909
 20
2.7505472776
 30
0.0
 40
0.3750000000000008
100
AcDbArc
 50
185.3224803507
 51
354.6775196493
  0
LINE
  5
EE
330
1F
100
AcDbEntity
  8
CUT
  6
Continuous
370
    15
100
AcDbLine
 10
1.5419894939
 20
3.8391297578
 30
0.0
 11
1.5419894939
 21
3.5891297578
 31
0.0
  0
ARC
  5
EF
330
1F
100
AcDbEntity
  8
CUT
  6
Continuous
370
    15
100
AcDbCircle
 10
1.7294894939
 20
3.5891297578
 30
0.0
 40
0.1875
100
AcDbArc
 50
180.0
 51
0.0
  0
LINE
  5
F0
330
1F
100
AcDbEntity
  8
CUT
  6
Continuous
370
    15
100
AcDbLine
 10
1.9169894939
 20
3.5891297578
 30
0.0
 11
1.9169894939
 21
3.8391297578
 31
0.0
  0
ARC
  5
F1
330
1F
100
AcDbEntity
  8
CUT
  6
Continuous
370
    15
100
AcDbCircle
 10
1.7294894939
 20
3.8391297578
 30
0.0
 40
0.1875
100
AcDbArc
 50
0.0
 51
180.0
  0
LINE
  5
F2
330
1F
100
AcDbEntity
  8
CUT
  6
Continuous
370
    15
100
AcDbLine
 10
8.4320842147
 20
3.1354040428
 30
0.0
 11
8.7445842147
 21
3.1354040428
 31
0.0
  0
ARC
  5
F3
330
1F
100
AcDbEntity
  8
CUT
  6
Continuous
370
    15
100
AcDbCircle
 10
8.4320842147
 20
3.0729040428
 30
0.0
 40
0.0625
100
AcDbArc
 50
90.0
 51
270.0
  0
LINE
  5
F4
330
1F
100
AcDbEntity
  8
CUT
  6
Continuous
370
    15
100
AcDbLine
 10
8.7445842147
 20
3.0104040428
 30
0.0
 11
8.4320842147
 21
3.0104040428
 31
0.0
  0
ARC
  5
F5
330
1F
100
AcDbEntity
  8
CUT
  6
Continuous
370
    15
100
AcDbCircle
 10
8.7445842147
 20
3.0729040428
 30
0.0
 40
0.0625000000000004
100
AcDbArc
 50
270.0
 51
90.0
  0
LINE
  5
F6
330
1F
100
AcDbEntity
  8
CUT
  6
Continuous
370
    15
100
AcDbLine
 10
8.4320842147
 20
3.7604040428
 30
0.0
 11
8.7445842147
 21
3.7604040428
 31
0.0
  0
ARC
  5
F7
330
1F
100
AcDbEntity
  8
CUT
  6
Continuous
370
    15
100
AcDbCircle
 10
8.4320842147
 20
3.6979040428
 30
0.0
 40
0.0625
100
AcDbArc
 50
90.0
 51
270.0
  0
LINE
  5
F8
330
1F
100
AcDbEntity
  8
CUT
  6
Continuous
370
    15
100
AcDbLine
 10
8.7445842147
 20
3.6354040428
 30
0.0
 11
8.4320842147
 21
3.6354040428
 31
0.0
  0
ARC
  5
F9
330
1F
100
AcDbEntity
  8
CUT
  6
Continuous
370
    15
100
AcDbCircle
 10
8.7445842147
 20
3.6979040428
 30
0.0
 40
0.0625
100
AcDbArc
 50
270.0
 51
90.0
  0
LINE
  5
FA
330
1F
100
AcDbEntity
  8
CUT
  6
Continuous
370
    15
100
AcDbLine
 10
6.6820842147
 20
3.7604040428
 30
0.0
 11
6.9945842147
 21
3.7604040428
 31
0.0
  0
ARC
  5
FB
330
1F
100
AcDbEntity
  8
CUT
  6
Continuous
370
    15
100
AcDbCircle
 10
6.6820842147
 20
3.6979040428
 30
0.0
 40
0.0625000000000004
100
AcDbArc
 50
90.0
 51
270.0
  0
LINE
  5
FC
330
1F
100
AcDbEntity
  8
CUT
  6
Continuous
370
    15
100
AcDbLine
 10
6.9945842147
 20
3.6354040428
 30
0.0
 11
6.6820842147
 21
3.6354040428
 31
0.0
  0
ARC
  5
FD
330
1F
100
AcDbEntity
  8
CUT
  6
Continuous
370
    15
100
AcDbCircle
 10
6.9945842147
 20
3.6979040428
 30
0.0
 40
0.0625
100
AcDbArc
 50
270.0
 51
90.0
  0
LINE
  5
FE
330
1F
100
AcDbEntity
  8
CUT
  6
Continuous
370
    15
100
AcDbLine
 10
6.6820842147
 20
3.1354040428
 30
0.0
 11
6.9945842147
 21
3.1354040428
 31
0.0
  0
ARC
  5
FF
330
1F
100
AcDbEntity
  8
CUT
  6
Continuous
370
    15
100
AcDbCircle
 10
6.6820842147
 20
3.0729040428
 30
0.0
 40
0.0625
100
AcDbArc
 50
90.0
 51
270.0
  0
LINE
  5
100
330
1F
100
AcDbEntity
  8
CUT
  6
Continuous
370
    15
100
AcDbLine
 10
6.9945842147
 20
3.0104040428
 30
0.0
 11
6.6820842147
 21
3.0104040428
 31
0.0
  0
ARC
  5
101
330
1F
100
AcDbEntity
  8
CUT
  6
Continuous
370
    15
100
AcDbCircle
 10
6.9945842147
 20
3.0729040428
 30
0.0
 40
0.0625
100
AcDbArc
 50
270.0
 51
90.0
  0
LINE
  5
102
330
1F
100
AcDbEntity
  8
CUT
  6
Continuous
370
    15
100
AcDbLine
 10
8.9867419295
 20
0.4931588887
 30
0.0
 11
9.2077127986
 21
0.7141297578
 31
0.0
  0
ARC
  5
103
330
1F
100
AcDbEntity
  8
CUT
  6
Continuous
370
    15
100
AcDbCircle
 10
9.1635186248
 20
0.7583239316
 30
0.0
 40
0.0624999999999997
100
AcDbArc
 50
315.0
 51
135.0
  0
LINE
  5
104
330
1F
100
AcDbEntity
  8
CUT
  6
Continuous
370
    15
100
AcDbLine
 10
9.119324451
 20
0.8025181055
 30
0.0
 11
8.8983535819
 21
0.5815472363
 31
0.0
  0
ARC
  5
105
330
1F
100
AcDbEntity
  8
CUT
  6
Continuous
370
    15
100
AcDbCircle
 10
8.9425477557
 20
0.5373530625
 30
0.0
 40
0.0624999999999993
100
AcDbArc
 50
135.0
 51
315.0
  0
LINE
  5
106
330
1F
100
AcDbEntity
  8
CUT
  6
Continuous
370
    15
100
AcDbLine
 10
10.2550477557
 20
1.7614647149
 30
0.0
 11
10.4760186248
 21
1.982435584
 31
0.0
  0
ARC
  5
107
330
1F
100
AcDbEntity
  8
CUT
  6
Continuous
370
    15
100
AcDbCircle
 10
10.431824451
 20
2.0266297578
 30
0.0
 40
0.0624999999999989
100
AcDbArc
 50
315.0
 51
135.0
  0
LINE
  5
108
330
1F
100
AcDbEntity
  8
CUT
  6
Continuous
370
    15
100
AcDbLine
 10
10.3876302772
 20
2.0708239316
 30
0.0
 11
10.1666594081
 21
1.8498530625
 31
0.0
  0
ARC
  5
109
330
1F
100
AcDbEntity
  8
CUT
  6
Continuous
370
    15
100
AcDbCircle
 10
10.2108535819
 20
1.8056588887
 30
0.0
 40
0.0625000000000002
100
AcDbArc
 50
135.0
 51
315.0
  0
LINE
  5
10A
330
1F
100
AcDbEntity
  8
CUT
  6
Continuous
370
    15
100
AcDbLine
 10
0.4794894939
 20
1.8416297578
 30
0.0
 11
0.4794894939
 21
2.7766297578
 31
0.0
  0
ARC
  5
10B
330
1F
100
AcDbEntity
  8
CUT
  6
Continuous
370
    15
100
AcDbCircle
 10
0.4169894939
 20
2.7766297578
 30
0.0
 40
0.0624999999999986
100
AcDbArc
 50
0.0
 51
180.0
  0
LINE
  5
10C
330
1F
100
AcDbEntity
  8
CUT
  6
Continuous
370
    15
100
AcDbLine
 10
0.3544894939
 20
2.7766297578
 30
0.0
 11
0.3544894939
 21
1.8416297578
 31
0.0
  0
ARC
  5
10D
330
1F
100
AcDbEntity
  8
CUT
  6
Continuous
370
    15
100
AcDbCircle
 10
0.4169894939
 20
1.8416297578
 30
0.0
 40
0.0624999999999986
100
AcDbArc
 50
180.0
 51
0.0
  0
LINE
  5
10E
330
1F
100
AcDbEntity
  8
CUT
  6
Continuous
370
    15
100
AcDbLine
 10
0.4794894939
 20
4.6516297578
 30
0.0
 11
0.4794894939
 21
5.5866297578
 31
0.0
  0
ARC
  5
10F
330
1F
100
AcDbEntity
  8
CUT
  6
Continuous
370
    15
100
AcDbCircle
 10
0.4169894939
 20
5.5866297578
 30
0.0
 40
0.0624999999999986
100
AcDbArc
 50
0.0
 51
180.0
  0
LINE
  5
110
330
1F
100
AcDbEntity
  8
CUT
  6
Continuous
370
    15
100
AcDbLine
 10
0.3544894939
 20
5.5866297578
 30
0.0
 11
0.3544894939
 21
4.6516297578
 31
0.0
  0
ARC
  5
111
330
1F
100
AcDbEntity
  8
CUT
  6
Continuous
370
    15
100
AcDbCircle
 10
0.4169894939
 20
4.6516297578
 30
0.0
 40
0.0624999999999986
100
AcDbArc
 50
180.0
 51
0.0
  0
LINE
  5
112
330
1F
100
AcDbEntity
  8
CUT
  6
Continuous
370
    15
100
AcDbLine
 10
3.8232394939
 20
0.3391297578
 30
0.0
 11
4.1357394939
 21
0.3391297578
 31
0.0
  0
ARC
  5
113
330
1F
100
AcDbEntity
  8
CUT
  6
Continuous
370
    15
100
AcDbCircle
 10
4.1357394939
 20
0.4016297578
 30
0.0
 40
0.0625000000000008
100
AcDbArc
 50
270.0
 51
90.0
  0
LINE
  5
114
330
1F
100
AcDbEntity
  8
CUT
  6
Continuous
370
    15
100
AcDbLine
 10
4.1357394939
 20
0.4641297578
 30
0.0
 11
3.8232394939
 21
0.4641297578
 31
0.0
  0
ARC
  5
115
330
1F
100
AcDbEntity
  8
CUT
  6
Continuous
370
    15
100
AcDbCircle
 10
3.8232394939
 20
0.4016297578
 30
0.0
 40
0.0625000000000008
100
AcDbArc
 50
90.0
 51
270.0
  0
LINE
  5
116
330
1F
100
AcDbEntity
  8
CUT
  6
Continuous
370
    15
100
AcDbLine
 10
2.6441843758
 20
0.8703797578
 30
0.0
 11
2.6441843758
 21
0.5578797578
 31
0.0
  0
ARC
  5
117
330
1F
100
AcDbEntity
  8
CUT
  6
Continuous
370
    15
100
AcDbCircle
 10
2.7066843758
 20
0.5578797578
 30
0.0
 40
0.0625000000000009
100
AcDbArc
 50
180.0
 51
0.0
  0
LINE
  5
118
330
1F
100
AcDbEntity
  8
CUT
  6
Continuous
370
    15
100
AcDbLine
 10
2.7691843758
 20
0.5578797578
 30
0.0
 11
2.7691843758
 21
0.8703797578
 31
0.0
  0
ARC
  5
119
330
1F
100
AcDbEntity
  8
CUT
  6
Continuous
370
    15
100
AcDbCircle
 10
2.7066843758
 20
0.8703797578
 30
0.0
 40
0.0625000000000009
100
AcDbArc
 50
0.0
 51
180.0
  0
LINE
  5
11A
330
1F
100
AcDbEntity
  8
CUT
  6
Continuous
370
    15
100
AcDbLine
 10
2.3316843758
 20
0.8703797578
 30
0.0
 11
2.3316843758
 21
0.5578797578
 31
0.0
  0
ARC
  5
11B
330
1F
100
AcDbEntity
  8
CUT
  6
Continuous
370
    15
100
AcDbCircle
 10
2.3941843758
 20
0.5578797578
 30
0.0
 40
0.0625000000000009
100
AcDbArc
 50
180.0
 51
0.0
  0
LINE
  5
11C
330
1F
100
AcDbEntity
  8
CUT
  6
Continuous
370
    15
100
AcDbLine
 10
2.4566843758
 20
0.5578797578
 30
0.0
 11
2.4566843758
 21
0.8703797578
 31
0.0
  0
ARC
  5
11D
330
1F
100
AcDbEntity
  8
CUT
  6
Continuous
370
    15
100
AcDbCircle
 10
2.3941843758
 20
0.8703797578
 30
0.0
 40
0.0625000000000009
100
AcDbArc
 50
0.0
 51
180.0
  0
LINE
  5
11E
330
1F
100
AcDbEntity
  8
CUT
  6
Continuous
370
    15
100
AcDbLine
 10
4.2919894939
 20
4.5891297578
 30
0.0
 11
4.2919894939
 21
4.9016297578
 31
0.0
  0
ARC
  5
11F
330
1F
100
AcDbEntity
  8
CUT
  6
Continuous
370
    15
100
AcDbCircle
 10
4.2294894939
 20
4.9016297578
 30
0.0
 40
0.0625000000000027
100
AcDbArc
 50
0.0
 51
180.0
  0
LINE
  5
120
330
1F
100
AcDbEntity
  8
CUT
  6
Continuous
370
    15
100
AcDbLine
 10
4.1669894939
 20
4.9016297578
 30
0.0
 11
4.1669894939
 21
4.5891297578
 31
0.0
  0
ARC
  5
121
330
1F
100
AcDbEntity
  8
CUT
  6
Continuous
370
    15
100
AcDbCircle
 10
4.2294894939
 20
4.5891297578
 30
0.0
 40
0.0625000000000027
100
AcDbArc
 50
180.0
 51
0.0
  0
LINE
  5
122
330
1F
100
AcDbEntity
  8
CUT
  6
Continuous
370
    15
100
AcDbLine
 10
4.2919894939
 20
5.9016297578
 30
0.0
 11
4.2919894939
 21
6.2141297578
 31
0.0
  0
ARC
  5
123
330
1F
100
AcDbEntity
  8
CUT
  6
Continuous
370
    15
100
AcDbCircle
 10
4.2294894939
 20
6.2141297578
 30
0.0
 40
0.0625000000000027
100
AcDbArc
 50
0.0
 51
180.0
  0
LINE
  5
124
330
1F
100
AcDbEntity
  8
CUT
  6
Continuous
370
    15
100
AcDbLine
 10
4.1669894939
 20
6.2141297578
 30
0.0
 11
4.1669894939
 21
5.9016297578
 31
0.0
  0
ARC
  5
125
330
1F
100
AcDbEntity
  8
CUT
  6
Continuous
370
    15
100
AcDbCircle
 10
4.2294894939
 20
5.9016297578
 30
0.0
 40
0.0625000000000027
100
AcDbArc
 50
180.0
 51
0.0
  0
LINE
  5
126
330
1F
100
AcDbEntity
  8
CUT
  6
Continuous
370
    15
100
AcDbLine
 10
4.9169894939
 20
4.5891297578
 30
0.0
 11
4.9169894939
 21
4.9016297578
 31
0.0
  0
ARC
  5
127
330
1F
100
AcDbEntity
  8
CUT
  6
Continuous
370
    15
100
AcDbCircle
 10
4.8544894939
 20
4.9016297578
 30
0.0
 40
0.0625000000000009
100
AcDbArc
 50
0.0
 51
180.0
  0
LINE
  5
128
330
1F
100
AcDbEntity
  8
CUT
  6
Continuous
370
    15
100
AcDbLine
 10
4.7919894939
 20
4.9016297578
 30
0.0
 11
4.7919894939
 21
4.5891297578
 31
0.0
  0
ARC
  5
129
330
1F
100
AcDbEntity
  8
CUT
  6
Continuous
370
    15
100
AcDbCircle
 10
4.8544894939
 20
4.5891297578
 30
0.0
 40
0.0625000000000009
100
AcDbArc
 50
180.0
 51
0.0
  0
LINE
  5
12A
330
1F
100
AcDbEntity
  8
CUT
  6
Continuous
370
    15
100
AcDbLine
 10
4.9169894939
 20
5.9016297578
 30
0.0
 11
4.9169894939
 21
6.2141297578
 31
0.0
  0
ARC
  5
12B
330
1F
100
AcDbEntity
  8
CUT
  6
Continuous
370
    15
100
AcDbCircle
 10
4.8544894939
 20
6.2141297578
 30
0.0
 40
0.0625000000000009
100
AcDbArc
 50
0.0
 51
180.0
  0
LINE
  5
12C
330
1F
100
AcDbEntity
  8
CUT
  6
Continuous
370
    15
100
AcDbLine
 10
4.7919894939
 20
6.2141297578
 30
0.0
 11
4.7919894939
 21
5.9016297578
 31
0.0
  0
ARC
  5
12D
330
1F
100
AcDbEntity
  8
CUT
  6
Continuous
370
    15
100
AcDbCircle
 10
4.8544894939
 20
5.9016297578
 30
0.0
 40
0.0625000000000009
100
AcDbArc
 50
180.0
 51
0.0
  0
LINE
  5
12E
330
1F
100
AcDbEntity
  8
CUT
  6
Continuous
370
    15
100
AcDbLine
 10
6.0419894939
 20
4.5891297578
 30
0.0
 11
6.0419894939
 21
4.9016297578
 31
0.0
  0
ARC
  5
12F
330
1F
100
AcDbEntity
  8
CUT
  6
Continuous
370
    15
100
AcDbCircle
 10
5.9794894939
 20
4.9016297578
 30
0.0
 40
0.0625000000000009
100
AcDbArc
 50
0.0
 51
180.0
  0
LINE
  5
130
330
1F
100
AcDbEntity
  8
CUT
  6
Continuous
370
    15
100
AcDbLine
 10
5.9169894939
 20
4.9016297578
 30
0.0
 11
5.9169894939
 21
4.5891297578
 31
0.0
  0
ARC
  5
131
330
1F
100
AcDbEntity
  8
CUT
  6
Continuous
370
    15
100
AcDbCircle
 10
5.9794894939
 20
4.5891297578
 30
0.0
 40
0.0625000000000009
100
AcDbArc
 50
180.0
 51
0.0
  0
LINE
  5
132
330
1F
100
AcDbEntity
  8
CUT
  6
Continuous
370
    15
100
AcDbLine
 10
6.0419894939
 20
5.9016297578
 30
0.0
 11
6.0419894939
 21
6.2141297578
 31
0.0
  0
ARC
  5
133
330
1F
100
AcDbEntity
  8
CUT
  6
Continuous
370
    15
100
AcDbCircle
 10
5.9794894939
 20
6.2141297578
 30
0.0
 40
0.0625000000000009
100
AcDbArc
 50
0.0
 51
180.0
  0
LINE
  5
134
330
1F
100
AcDbEntity
  8
CUT
  6
Continuous
370
    15
100
AcDbLine
 10
5.9169894939
 20
6.2141297578
 30
0.0
 11
5.9169894939
 21
5.9016297578
 31
0.0
  0
ARC
  5
135
330
1F
100
AcDbEntity
  8
CUT
  6
Continuous
370
    15
100
AcDbCircle
 10
5.9794894939
 20
5.9016297578
 30
0.0
 40
0.0625000000000009
100
AcDbArc
 50
180.0
 51
0.0
  0
ARC
  5
136
330
1F
100
AcDbEntity
  8
CUT
  6
Continuous
370
    15
100
AcDbCircle
 10
9.6191300909
 20
3.2141297578
 30
0.0
 40
0.3749999999999994
100
AcDbArc
 50
359.8138882138
 51
180.1861117862
  0
ARC
  5
137
330
1F
100
AcDbEntity
  8
CUT
  6
Continuous
370
    15
100
AcDbCircle
 10
13.5080867367
 20
6.5381569782
 30
0.0
 40
0.0624999999999993
100
AcDbArc
 50
45.0
 51
225.0
  0
LINE
  5
138
330
1F
100
AcDbEntity
  8
CUT
  6
Continuous
370
    15
100
AcDbLine
 10
13.684863432
 20
6.2729919352
 30
0.0
 11
13.4638925629
 21
6.4939628043
 31
0.0
  0
ARC
  5
139
330
1F
100
AcDbEntity
  8
CUT
  6
Continuous
370
    15
100
AcDbCircle
 10
13.7290576058
 20
6.317186109
 30
0.0
 40
0.0624999999999993
100
AcDbArc
 50
225.0
 51
45.0
  0
LINE
  5
13A
330
1F
100
AcDbEntity
  8
CUT
  6
Continuous
370
    15
100
AcDbLine
 10
13.5522809105
 20
6.582351152
 30
0.0
 11
13.7732517796
 21
6.3613802829
 31
0.0
  0
ARC
  5
13B
330
1F
100
AcDbEntity
  8
CUT
  6
Continuous
370
    15
100
AcDbCircle
 10
14.7763925629
 20
5.269851152
 30
0.0
 40
0.0624999999999993
100
AcDbArc
 50
45.0
 51
225.0
  0
LINE
  5
13C
330
1F
100
AcDbEntity
  8
CUT
  6
Continuous
370
    15
100
AcDbLine
 10
14.9531692582
 20
5.004686109
 30
0.0
 11
14.732198389
 21
5.2256569782
 31
0.0
  0
ARC
  5
13D
330
1F
100
AcDbEntity
  8
CUT
  6
Continuous
370
    15
100
AcDbCircle
 10
14.997363432
 20
5.0488802829
 30
0.0
 40
0.0624999999999999
100
AcDbArc
 50
225.0
 51
45.0
  0
LINE
  5
13E
330
1F
100
AcDbEntity
  8
CUT
  6
Continuous
370
    15
100
AcDbLine
 10
14.8205867367
 20
5.3140453258
 30
0.0
 11
15.0415576058
 21
5.0930744567
 31
0.0
  0
LINE
  5
13F
330
1F
100
AcDbEntity
  8
CUT
  6
Continuous
370
    15
100
AcDbLine
 10
20.757826973
 20
8.8043826932
 30
0.0
 11
20.445326973
 21
8.8043826932
 31
0.0
  0
ARC
  5
140
330
1F
100
AcDbEntity
  8
CUT
  6
Continuous
370
    15
100
AcDbCircle
 10
20.757826973
 20
8.8668826932
 30
0.0
 40
0.0625
100
AcDbArc
 50
270.0
 51
90.0
  0
LINE
  5
141
330
1F
100
AcDbEntity
  8
CUT
  6
Continuous
370
    15
100
AcDbLine
 10
20.445326973
 20
8.9293826932
 30
0.0
 11
20.757826973
 21
8.9293826932
 31
0.0
  0
ARC
  5
142
330
1F
100
AcDbEntity
  8
CUT
  6
Continuous
370
    15
100
AcDbCircle
 10
20.445326973
 20
8.8668826932
 30
0.0
 40
0.0625000000000018
100
AcDbArc
 50
90.0
 51
270.0
  0
LINE
  5
143
330
1F
100
AcDbEntity
  8
CUT
  6
Continuous
370
    15
100
AcDbLine
 10
19.007826973
 20
8.8043826932
 30
0.0
 11
18.695326973
 21
8.8043826932
 31
0.0
  0
ARC
  5
144
330
1F
100
AcDbEntity
  8
CUT
  6
Continuous
370
    15
100
AcDbCircle
 10
19.007826973
 20
8.8668826932
 30
0.0
 40
0.0625000000000018
100
AcDbArc
 50
270.0
 51
90.0
  0
LINE
  5
145
330
1F
100
AcDbEntity
  8
CUT
  6
Continuous
370
    15
100
AcDbLine
 10
18.695326973
 20
8.9293826932
 30
0.0
 11
19.007826973
 21
8.9293826932
 31
0.0
  0
ARC
  5
146
330
1F
100
AcDbEntity
  8
CUT
  6
Continuous
370
    15
100
AcDbCircle
 10
18.695326973
 20
8.8668826932
 30
0.0
 40
0.0625
100
AcDbArc
 50
90.0
 51
270.0
  0
LINE
  5
147
330
1F
100
AcDbEntity
  8
CUT
  6
Continuous
370
    15
100
AcDbLine
 10
20.757826973
 20
8.1793826932
 30
0.0
 11
20.445326973
 21
8.1793826932
 31
0.0
  0
ARC
  5
148
330
1F
100
AcDbEntity
  8
CUT
  6
Continuous
370
    15
100
AcDbCircle
 10
20.757826973
 20
8.2418826932
 30
0.0
 40
0.0625
100
AcDbArc
 50
270.0
 51
90.0
  0
LINE
  5
149
330
1F
100
AcDbEntity
  8
CUT
  6
Continuous
370
    15
100
AcDbLine
 10
20.445326973
 20
8.3043826932
 30
0.0
 11
20.757826973
 21
8.3043826932
 31
0.0
  0
ARC
  5
14A
330
1F
100
AcDbEntity
  8
CUT
  6
Continuous
370
    15
100
AcDbCircle
 10
20.445326973
 20
8.2418826932
 30
0.0
 40
0.0625000000000018
100
AcDbArc
 50
90.0
 51
270.0
  0
LINE
  5
14B
330
1F
100
AcDbEntity
  8
CUT
  6
Continuous
370
    15
100
AcDbLine
 10
19.007826973
 20
8.1793826932
 30
0.0
 11
18.695326973
 21
8.1793826932
 31
0.0
  0
ARC
  5
14C
330
1F
100
AcDbEntity
  8
CUT
  6
Continuous
370
    15
100
AcDbCircle
 10
19.007826973
 20
8.2418826932
 30
0.0
 40
0.0625
100
AcDbArc
 50
270.0
 51
90.0
  0
LINE
  5
14D
330
1F
100
AcDbEntity
  8
CUT
  6
Continuous
370
    15
100
AcDbLine
 10
18.695326973
 20
8.3043826932
 30
0.0
 11
19.007826973
 21
8.3043826932
 31
0.0
  0
ARC
  5
14E
330
1F
100
AcDbEntity
  8
CUT
  6
Continuous
370
    15
100
AcDbCircle
 10
18.695326973
 20
8.2418826932
 30
0.0
 40
0.0625
100
AcDbArc
 50
90.0
 51
270.0
  0
CIRCLE
  5
14F
330
1F
100
AcDbEntity
  8
CUT
  6
Continuous
370
    15
100
AcDbCircle
 10
17.1341618512
 20
5.2506084082
 30
0.0
 40
0.0444999999999993
  0
CIRCLE
  5
150
330
1F
100
AcDbEntity
  8
CUT
  6
Continuous
370
    15
100
AcDbCircle
 10
19.766051615
 20
9.3070250884
 30
0.0
 40
0.0444999999999993
  0
CIRCLE
  5
151
330
1F
100
AcDbEntity
  8
CUT
  6
Continuous
370
    15
100
AcDbCircle
 10
19.766051615
 20
11.1967888679
 30
0.0
 40
0.0444999999999993
  0
CIRCLE
  5
152
330
1F
100
AcDbEntity
  8
CUT
  6
Continuous
370
    15
100
AcDbCircle
 10
15.6321933473
 20
11.1967888679
 30
0.0
 40
0.0445000000000011
  0
CIRCLE
  5
153
330
1F
100
AcDbEntity
  8
CUT
  6
Continuous
370
    15
100
AcDbCircle
 10
15.6321933473
 20
9.3070250884
 30
0.0
 40
0.0444999999999975
  0
CIRCLE
  5
154
330
1F
100
AcDbEntity
  8
CUT
  6
Continuous
370
    15
100
AcDbCircle
 10
15.7764118512
 20
7.6211084082
 30
0.0
 40
0.0444999999999993
  0
CIRCLE
  5
155
330
1F
100
AcDbEntity
  8
CUT
  6
Continuous
370
    15
100
AcDbCircle
 10
16.2264118512
 20
7.6211084082
 30
0.0
 40
0.0444999999999993
  0
CIRCLE
  5
156
330
1F
100
AcDbEntity
  8
CUT
  6
Continuous
370
    15
100
AcDbCircle
 10
15.3639118512
 20
5.3131084082
 30
0.0
 40
0.0445000000000011
  0
CIRCLE
  5
157
330
1F
100
AcDbEntity
  8
CUT
  6
Continuous
370
    15
100
AcDbCircle
 10
16.6389118512
 20
5.3131084082
 30
0.0
 40
0.0444999999999993
  0
CIRCLE
  5
158
330
1F
100
AcDbEntity
  8
CUT
  6
Continuous
370
    15
100
AcDbCircle
 10
21.4461697252
 20
5.0563656396
 30
0.0
 40
0.0444999999999993
  0
CIRCLE
  5
159
330
1F
100
AcDbEntity
  8
CUT
  6
Continuous
370
    15
100
AcDbCircle
 10
21.4461697252
 20
10.2729010726
 30
0.0
 40
0.0445000000000029
  0
CIRCLE
  5
15A
330
1F
100
AcDbEntity
  8
CUT
  6
Continuous
370
    15
100
AcDbCircle
 10
15.265067363
 20
11.1784128837
 30
0.0
 40
0.0444999999999993
  0
CIRCLE
  5
15B
330
1F
100
AcDbEntity
  8
CUT
  6
Continuous
370
    15
100
AcDbCircle
 10
15.265067363
 20
5.0563656396
 30
0.0
 40
0.0445000000000011
  0
CIRCLE
  5
15C
330
1F
100
AcDbEntity
  8
CUT
  6
Continuous
370
    15
100
AcDbCircle
 10
13.4926756307
 20
8.9256569782
 30
0.0
 40
0.0445000000000011
  0
CIRCLE
  5
15D
330
1F
100
AcDbEntity
  8
CUT
  6
Continuous
370
    15
100
AcDbCircle
 10
12.5926756307
 20
8.9256569782
 30
0.0
 40
0.0445000000000011
  0
CIRCLE
  5
15E
330
1F
100
AcDbEntity
  8
CUT
  6
Continuous
370
    15
100
AcDbCircle
 10
12.5926756307
 20
7.5256569782
 30
0.0
 40
0.0444999999999975
  0
CIRCLE
  5
15F
330
1F
100
AcDbEntity
  8
CUT
  6
Continuous
370
    15
100
AcDbCircle
 10
13.4926756307
 20
7.5256569782
 30
0.0
 40
0.0444999999999993
  0
CIRCLE
  5
160
330
1F
100
AcDbEntity
  8
CUT
  6
Continuous
370
    15
100
AcDbCircle
 10
20.6587681504
 20
10.5288065845
 30
0.0
 40
0.0642500000000048
  0
CIRCLE
  5
161
330
1F
100
AcDbEntity
  8
CUT
  6
Continuous
370
    15
100
AcDbCircle
 10
16.0524689378
 20
10.5288065845
 30
0.0
 40
0.0642499999999995
  0
CIRCLE
  5
162
330
1F
100
AcDbEntity
  8
CUT
  6
Continuous
370
    15
100
AcDbCircle
 10
20.6587681504
 20
5.9225073719
 30
0.0
 40
0.0642499999999977
  0
CIRCLE
  5
163
330
1F
100
AcDbEntity
  8
CUT
  6
Continuous
370
    15
100
AcDbCircle
 10
16.0524689378
 20
5.9225073719
 30
0.0
 40
0.0642499999999977
  0
CIRCLE
  5
164
330
1F
100
AcDbEntity
  8
CUT
  6
Continuous
370
    15
100
AcDbCircle
 10
14.8556185441
 20
10.7256569782
 30
0.0
 40
0.0642499999999995
  0
CIRCLE
  5
165
330
1F
100
AcDbEntity
  8
CUT
  6
Continuous
370
    15
100
AcDbCircle
 10
14.8556185441
 20
5.7256569782
 30
0.0
 40
0.064250000000003
  0
CIRCLE
  5
166
330
1F
100
AcDbEntity
  8
CUT
  6
Continuous
370
    15
100
AcDbCircle
 10
21.8556185441
 20
10.7256569782
 30
0.0
 40
0.0642500000000013
  0
CIRCLE
  5
167
330
1F
100
AcDbEntity
  8
CUT
  6
Continuous
370
    15
100
AcDbCircle
 10
21.8556185441
 20
5.7256569782
 30
0.0
 40
0.0642499999999977
  0
CIRCLE
  5
168
330
1F
100
AcDbEntity
  8
CUT
  6
Continuous
370
    15
100
AcDbCircle
 10
13.7424150267
 20
8.2256569782
 30
0.0
 40
0.0642499999999995
  0
CIRCLE
  5
169
330
1F
100
AcDbEntity
  8
CUT
  6
Continuous
370
    15
100
AcDbCircle
 10
12.5215894767
 20
9.6006569782
 30
0.0
 40
0.0642499999999995
  0
CIRCLE
  5
16A
330
1F
100
AcDbEntity
  8
CUT
  6
Continuous
370
    15
100
AcDbCircle
 10
12.5215894767
 20
6.8506569782
 30
0.0
 40
0.0642499999999995
  0
CIRCLE
  5
16B
330
1F
100
AcDbEntity
  8
CUT
  6
Continuous
370
    15
100
AcDbCircle
 10
10.5215894767
 20
9.6006569782
 30
0.0
 40
0.0642500000000013
  0
CIRCLE
  5
16C
330
1F
100
AcDbEntity
  8
CUT
  6
Continuous
370
    15
100
AcDbCircle
 10
10.5215894767
 20
6.8506569782
 30
0.0
 40
0.0642499999999977
  0
CIRCLE
  5
16D
330
1F
100
AcDbEntity
  8
CUT
  6
Continuous
370
    15
100
AcDbCircle
 10
22.6804216937
 20
7.6006569782
 30
0.0
 40
0.0642500000000013
  0
CIRCLE
  5
16E
330
1F
100
AcDbEntity
  8
CUT
  6
Continuous
370
    15
100
AcDbCircle
 10
22.6804216937
 20
8.8506569782
 30
0.0
 40
0.0642500000000013
  0
CIRCLE
  5
16F
330
1F
100
AcDbEntity
  8
CUT
  6
Continuous
370
    15
100
AcDbCircle
 10
9.9304216937
 20
8.8506569782
 30
0.0
 40
0.0642500000000013
  0
CIRCLE
  5
170
330
1F
100
AcDbEntity
  8
CUT
  6
Continuous
370
    15
100
AcDbCircle
 10
9.9304216937
 20
7.6006569782
 30
0.0
 40
0.0642499999999995
  0
ARC
  5
171
330
1F
100
AcDbEntity
  8
CUT
  6
Continuous
370
    15
100
AcDbCircle
 10
22.7104216937
 20
5.7256569782
 30
0.0
 40
1.0
100
AcDbArc
 50
270.0
 51
0.0
  0
LINE
  5
172
330
1F
100
AcDbEntity
  8
CUT
  6
Continuous
370
    15
100
AcDbLine
 10
15.2625284749
 20
4.7256569782
 30
0.0
 11
22.7104216937
 21
4.7256569782
 31
0.0
  0
ARC
  5
173
330
1F
100
AcDbEntity
  8
CUT
  6
Continuous
370
    15
100
AcDbCircle
 10
15.2625284749
 20
5.2256569782
 30
0.0
 40
0.5000000000000009
100
AcDbArc
 50
225.0
 51
270.0
  0
LINE
  5
174
330
1F
100
AcDbEntity
  8
CUT
  6
Continuous
370
    15
100
AcDbLine
 10
13.3268683031
 20
6.4542103687
 30
0.0
 11
14.9089750843
 21
4.8721035876
 31
0.0
  0
ARC
  5
175
330
1F
100
AcDbEntity
  8
CUT
  6
Continuous
370
    15
100
AcDbCircle
 10
12.9733149126
 20
6.1006569782
 30
0.0
 40
0.5000000000000002
100
AcDbArc
 50
45.0
 51
90.0
  0
LINE
  5
176
330
1F
100
AcDbEntity
  8
CUT
  6
Continuous
370
    15
100
AcDbLine
 10
10.3255023276
 20
6.6006569782
 30
0.0
 11
12.9733149126
 21
6.6006569782
 31
0.0
  0
ARC
  5
177
330
1F
100
AcDbEntity
  8
CUT
  6
Continuous
370
    15
100
AcDbCircle
 10
10.3255023276
 20
6.8506569782
 30
0.0
 40
0.2500000000000009
100
AcDbArc
 50
209.7448812969
 51
270.0
  0
LINE
  5
178
330
1F
100
AcDbEntity
  8
CUT
  6
Continuous
370
    15
100
AcDbLine
 10
9.7524018454
 20
7.3496917127
 30
0.0
 11
10.1084415421
 21
6.7266222436
 31
0.0
  0
ARC
  5
179
330
1F
100
AcDbEntity
  8
CUT
  6
Continuous
370
    15
100
AcDbCircle
 10
9.5353410599
 20
7.2256569782
 30
0.0
 40
0.2499999999999991
100
AcDbArc
 50
29.7448812969
 51
90.0
  0
LINE
  5
17A
330
1F
100
AcDbEntity
  8
CUT
  6
Continuous
370
    15
100
AcDbLine
 10
8.9304216937
 20
7.4756569782
 30
0.0
 11
9.5353410599
 21
7.4756569782
 31
0.0
  0
ARC
  5
17B
330
1F
100
AcDbEntity
  8
CUT
  6
Continuous
370
    15
100
AcDbCircle
 10
8.9304216937
 20
7.7256569782
 30
0.0
 40
0.2500000000000009
100
AcDbArc
 50
180.0
 51
270.0
  0
LINE
  5
17C
330
1F
100
AcDbEntity
  8
CUT
  6
Continuous
370
    15
100
AcDbLine
 10
8.6804216937
 20
8.7256569782
 30
0.0
 11
8.6804216937
 21
7.7256569782
 31
0.0
  0
ARC
  5
17D
330
1F
100
AcDbEntity
  8
CUT
  6
Continuous
370
    15
100
AcDbCircle
 10
8.9304216937
 20
8.7256569782
 30
0.0
 40
0.25
100
AcDbArc
 50
90.0
 51
180.0
  0
LINE
  5
17E
330
1F
100
AcDbEntity
  8
CUT
  6
Continuous
370
    15
100
AcDbLine
 10
8.9304216937
 20
8.9756569782
 30
0.0
 11
9.5353410599
 21
8.9756569782
 31
0.0
  0
ARC
  5
17F
330
1F
100
AcDbEntity
  8
CUT
  6
Continuous
370
    15
100
AcDbCircle
 10
9.5353410599
 20
9.2256569782
 30
0.0
 40
0.2499999999999993
100
AcDbArc
 50
270.0
 51
330.2551187031
  0
LINE
  5
180
330
1F
100
AcDbEntity
  8
CUT
  6
Continuous
370
    15
100
AcDbLine
 10
10.1084415421
 20
9.7246917127
 30
0.0
 11
9.7524018454
 21
9.1016222436
 31
0.0
  0
ARC
  5
181
330
1F
100
AcDbEntity
  8
CUT
  6
Continuous
370
    15
100
AcDbCircle
 10
10.3255023276
 20
9.6006569782
 30
0.0
 40
0.25
100
AcDbArc
 50
90.0
 51
150.2551187031
  0
LINE
  5
182
330
1F
100
AcDbEntity
  8
CUT
  6
Continuous
370
    15
100
AcDbLine
 10
10.3255023276
 20
9.8506569782
 30
0.0
 11
12.9733149126
 21
9.8506569782
 31
0.0
  0
ARC
  5
183
330
1F
100
AcDbEntity
  8
CUT
  6
Continuous
370
    15
100
AcDbCircle
 10
12.9733149126
 20
10.3506569782
 30
0.0
 40
0.5000000000000018
100
AcDbArc
 50
270.0
 51
315.0
  0
LINE
  5
184
330
1F
100
AcDbEntity
  8
CUT
  6
Continuous
370
    15
100
AcDbLine
 10
13.3268683031
 20
9.9971035876
 30
0.0
 11
14.9089750843
 21
11.5792103687
 31
0.0
  0
ARC
  5
185
330
1F
100
AcDbEntity
  8
CUT
  6
Continuous
370
    15
100
AcDbCircle
 10
15.2625284749
 20
11.2256569782
 30
0.0
 40
0.5000000000000018
100
AcDbArc
 50
90.0
 51
135.0
  0
LINE
  5
186
330
1F
100
AcDbEntity
  8
CUT
  6
Continuous
370
    15
100
AcDbLine
 10
15.2625284749
 20
11.7256569782
 30
0.0
 11
22.7104216937
 21
11.7256569782
 31
0.0
  0
ARC
  5
187
330
1F
100
AcDbEntity
  8
CUT
  6
Continuous
370
    15
100
AcDbCircle
 10
22.7104216937
 20
10.7256569782
 30
0.0
 40
1.0
100
AcDbArc
 50
0.0
 51
90.0
  0
LINE
  5
188
330
1F
100
AcDbEntity
  8
CUT
  6
Continuous
370
    15
100
AcDbLine
 10
23.7104216937
 20
5.7256569782
 30
0.0
 11
23.7104216937
 21
10.7256569782
 31
0.0
  0
LINE
  5
189
330
1F
100
AcDbEntity
  8
CUT
  6
Continuous
370
    15
100
AcDbLine
 10
12.4301756307
 20
7.3398302065
 30
0.0
 11
12.4301756307
 21
9.1114837498
 31
0.0
  0
ARC
  5
18A
330
1F
100
AcDbEntity
  8
CUT
  6
Continuous
370
    15
100
AcDbCircle
 10
12.3005004339
 20
9.1114837498
 30
0.0
 40
0.1296751968503944
100
AcDbArc
 50
0.0
 51
90.0
  0
LINE
  5
18B
330
1F
100
AcDbEntity
  8
CUT
  6
Continuous
370
    15
100
AcDbLine
 10
12.3005004339
 20
9.2411589467
 30
0.0
 11
10.5288468906
 21
9.2411589467
 31
0.0
  0
ARC
  5
18C
330
1F
100
AcDbEntity
  8
CUT
  6
Continuous
370
    15
100
AcDbCircle
 10
10.5288468906
 20
9.1114837498
 30
0.0
 40
0.1296751968503944
100
AcDbArc
 50
90.0
 51
180.0
  0
LINE
  5
18D
330
1F
100
AcDbEntity
  8
CUT
  6
Continuous
370
    15
100
AcDbLine
 10
10.3991716937
 20
9.1114837498
 30
0.0
 11
10.3991716937
 21
7.3398302065
 31
0.0
  0
ARC
  5
18E
330
1F
100
AcDbEntity
  8
CUT
  6
Continuous
370
    15
100
AcDbCircle
 10
10.5288468906
 20
7.3398302065
 30
0.0
 40
0.1296751968503935
100
AcDbArc
 50
180.0
 51
270.0
  0
LINE
  5
18F
330
1F
100
AcDbEntity
  8
CUT
  6
Continuous
370
    15
100
AcDbLine
 10
10.5288468906
 20
7.2101550097
 30
0.0
 11
12.3005004339
 21
7.2101550097
 31
0.0
  0
ARC
  5
190
330
1F
100
AcDbEntity
  8
CUT
  6
Continuous
370
    15
100
AcDbCircle
 10
12.3005004339
 20
7.3398302065
 30
0.0
 40
0.1296751968503935
100
AcDbArc
 50
270.0
 51
0.0
  0
ARC
  5
191
330
1F
100
AcDbEntity
  8
CUT
  6
Continuous
370
    15
100
AcDbCircle
 10
22.8354216937
 20
9.2256569782
 30
0.0
 40
0.1250000000000036
100
AcDbArc
 50
270.0
 51
0.0
  0
LINE
  5
192
330
1F
100
AcDbEntity
  8
CUT
  6
Continuous
370
    15
100
AcDbLine
 10
22.9604216937
 20
10.0356569782
 30
0.0
 11
22.9604216937
 21
9.2256569782
 31
0.0
  0
ARC
  5
193
330
1F
100
AcDbEntity
  8
CUT
  6
Continuous
370
    15
100
AcDbCircle
 10
22.8354216937
 20
10.0356569782
 30
0.0
 40
0.125
100
AcDbArc
 50
0.0
 51
90.0
  0
LINE
  5
194
330
1F
100
AcDbEntity
  8
CUT
  6
Continuous
370
    15
100
AcDbLine
 10
21.7254216937
 20
10.1606569782
 30
0.0
 11
22.8354216937
 21
10.1606569782
 31
0.0
  0
ARC
  5
195
330
1F
100
AcDbEntity
  8
CUT
  6
Continuous
370
    15
100
AcDbCircle
 10
21.7254216937
 20
10.0356569782
 30
0.0
 40
0.125
100
AcDbArc
 50
90.0
 51
180.0
  0
LINE
  5
196
330
1F
100
AcDbEntity
  8
CUT
  6
Continuous
370
    15
100
AcDbLine
 10
21.6004216937
 20
9.2256569782
 30
0.0
 11
21.6004216937
 21
10.0356569782
 31
0.0
  0
ARC
  5
197
330
1F
100
AcDbEntity
  8
CUT
  6
Continuous
370
    15
100
AcDbCircle
 10
21.7254216937
 20
9.2256569782
 30
0.0
 40
0.1250000000000036
100
AcDbArc
 50
180.0
 51
270.0
  0
LINE
  5
198
330
1F
100
AcDbEntity
  8
CUT
  6
Continuous
370
    15
100
AcDbLine
 10
21.7254216937
 20
9.1006569782
 30
0.0
 11
22.8354216937
 21
9.1006569782
 31
0.0
  0
ARC
  5
199
330
1F
100
AcDbEntity
  8
CUT
  6
Continuous
370
    15
100
AcDbCircle
 10
21.7254216937
 20
6.4156569782
 30
0.0
 40
0.1250000000000009
100
AcDbArc
 50
180.0
 51
270.0
  0
LINE
  5
19A
330
1F
100
AcDbEntity
  8
CUT
  6
Continuous
370
    15
100
AcDbLine
 10
21.7254216937
 20
6.2906569782
 30
0.0
 11
22.8354216937
 21
6.2906569782
 31
0.0
  0
ARC
  5
19B
330
1F
100
AcDbEntity
  8
CUT
  6
Continuous
370
    15
100
AcDbCircle
 10
22.8354216937
 20
6.4156569782
 30
0.0
 40
0.1249999999999991
100
AcDbArc
 50
270.0
 51
0.0
  0
LINE
  5
19C
330
1F
100
AcDbEntity
  8
CUT
  6
Continuous
370
    15
100
AcDbLine
 10
22.9604216937
 20
7.2256569782
 30
0.0
 11
22.9604216937
 21
6.4156569782
 31
0.0
  0
ARC
  5
19D
330
1F
100
AcDbEntity
  8
CUT
  6
Continuous
370
    15
100
AcDbCircle
 10
22.8354216937
 20
7.2256569782
 30
0.0
 40
0.1250000000000036
100
AcDbArc
 50
0.0
 51
90.0
  0
LINE
  5
19E
330
1F
100
AcDbEntity
  8
CUT
  6
Continuous
370
    15
100
AcDbLine
 10
21.7254216937
 20
7.3506569782
 30
0.0
 11
22.8354216937
 21
7.3506569782
 31
0.0
  0
ARC
  5
19F
330
1F
100
AcDbEntity
  8
CUT
  6
Continuous
370
    15
100
AcDbCircle
 10
21.7254216937
 20
7.2256569782
 30
0.0
 40
0.1250000000000036
100
AcDbArc
 50
90.0
 51
180.0
  0
LINE
  5
1A0
330
1F
100
AcDbEntity
  8
CUT
  6
Continuous
370
    15
100
AcDbLine
 10
21.6004216937
 20
7.2256569782
 30
0.0
 11
21.6004216937
 21
6.4156569782
 31
0.0
  0
CIRCLE
  5
1A1
330
1F
100
AcDbEntity
  8
CUT
  6
Continuous
370
    15
100
AcDbCircle
 10
21.1341618512
 20
7.7506084082
 30
0.0
 40
0.0444999999999993
  0
CIRCLE
  5
1A2
330
1F
100
AcDbEntity
  8
CUT
  6
Continuous
370
    15
100
AcDbCircle
 10
17.1341618512
 20
7.7506084082
 30
0.0
 40
0.0444999999999993
  0
CIRCLE
  5
1A3
330
1F
100
AcDbEntity
  8
CUT
  6
Continuous
370
    15
100
AcDbCircle
 10
21.1341618512
 20
5.2506084082
 30
0.0
 40
0.0445000000000029
  0
CIRCLE
  5
1A4
330
1F
100
AcDbEntity
  8
CUT
  6
Continuous
370
    15
100
AcDbCircle
 10
9.1804216937
 20
8.2256569782
 30
0.0
 40
0.1329999999999991
  0
CIRCLE
  5
1A5
330
1F
100
AcDbEntity
  8
CUT
  6
Continuous
370
    15
100
AcDbCircle
 10
9.1804216937
 20
7.7256569782
 30
0.0
 40
0.0642499999999995
  0
CIRCLE
  5
1A6
330
1F
100
AcDbEntity
  8
CUT
  6
Continuous
370
    15
100
AcDbCircle
 10
9.1804216937
 20
8.7256569782
 30
0.0
 40
0.0642499999999995
  0
CIRCLE
  5
1A7
330
1F
100
AcDbEntity
  8
CUT
  6
Continuous
370
    15
100
AcDbCircle
 10
22.0264322751
 20
5.2096383804
 30
0.0
 40
0.1249999999999964
  0
CIRCLE
  5
1A8
330
1F
100
AcDbEntity
  8
CUT
  6
Continuous
370
    15
100
AcDbCircle
 10
22.0264322751
 20
11.2416755759
 30
0.0
 40
0.1249999999999964
  0
LINE
  5
1A9
330
1F
100
AcDbEntity
  8
CUT
  6
Continuous
370
    15
100
AcDbLine
 10
14.7006607545
 20
7.2240354817
 30
0.0
 11
14.6990379445
 21
7.7236268171
 31
0.0
  0
ARC
  5
1AA
330
1F
100
AcDbEntity
  8
CUT
  6
Continuous
370
    15
100
AcDbCircle
 10
14.3207810968
 20
7.7223981349
 30
0.0
 40
0.3782588432960577
100
AcDbArc
 50
0.1861117862
 51
179.8138882138
  0
LINE
  5
1AB
330
1F
100
AcDbEntity
  8
CUT
  6
Continuous
370
    15
100
AcDbLine
 10
13.942524249
 20
7.7236268171
 30
0.0
 11
13.940901439
 21
7.2240354817
 31
0.0
  0
ARC
  5
1AC
330
1F
100
AcDbEntity
  8
CUT
  6
Continuous
370
    15
100
AcDbCircle
 10
14.3207810968
 20
7.1892394584
 30
0.0
 40
0.3814699432445995
100
AcDbArc
 50
174.7664544335
 51
5.2335455665
  0
LINE
  5
1AD
330
1F
100
AcDbEntity
  8
CUT
  6
Continuous
370
    15
100
AcDbLine
 10
13.9473979545
 20
9.2240249305
 30
0.0
 11
13.9457830751
 21
8.7268750748
 31
0.0
  0
LINE
  5
1AE
330
1F
100
AcDbEntity
  8
CUT
  6
Continuous
370
    15
100
AcDbLine
 10
14.6957791184
 20
8.7268750748
 30
0.0
 11
14.694164239
 21
9.2240249305
 31
0.0
  0
ARC
  5
1AF
330
1F
100
AcDbEntity
  8
CUT
  6
Continuous
370
    15
100
AcDbCircle
 10
14.3207810968
 20
9.1892394584
 30
0.0
 40
0.3750000000000006
100
AcDbArc
 50
5.3224803507
 51
174.6775196493
  0
LINE
  5
1B0
330
1F
100
AcDbEntity
  8
CUT
  6
Continuous
370
    15
100
AcDbLine
 10
22.3979216937
 20
8.1006569782
 30
0.0
 11
22.3979216937
 21
8.3506569782
 31
0.0
  0
ARC
  5
1B1
330
1F
100
AcDbEntity
  8
CUT
  6
Continuous
370
    15
100
AcDbCircle
 10
22.2104216937
 20
8.3506569782
 30
0.0
 40
0.1875
100
AcDbArc
 50
0.0
 51
180.0
  0
LINE
  5
1B2
330
1F
100
AcDbEntity
  8
CUT
  6
Continuous
370
    15
100
AcDbLine
 10
22.0229216937
 20
8.3506569782
 30
0.0
 11
22.0229216937
 21
8.1006569782
 31
0.0
  0
ARC
  5
1B3
330
1F
100
AcDbEntity
  8
CUT
  6
Continuous
370
    15
100
AcDbCircle
 10
22.2104216937
 20
8.1006569782
 30
0.0
 40
0.1875
100
AcDbArc
 50
180.0
 51
0.0
  0
LINE
  5
1B4
330
1F
100
AcDbEntity
  8
CUT
  6
Continuous
370
    15
100
AcDbLine
 10
15.507826973
 20
8.8043826932
 30
0.0
 11
15.195326973
 21
8.8043826932
 31
0.0
  0
ARC
  5
1B5
330
1F
100
AcDbEntity
  8
CUT
  6
Continuous
370
    15
100
AcDbCircle
 10
15.507826973
 20
8.8668826932
 30
0.0
 40
0.0625
100
AcDbArc
 50
270.0
 51
90.0
  0
LINE
  5
1B6
330
1F
100
AcDbEntity
  8
CUT
  6
Continuous
370
    15
100
AcDbLine
 10
15.195326973
 20
8.9293826932
 30
0.0
 11
15.507826973
 21
8.9293826932
 31
0.0
  0
ARC
  5
1B7
330
1F
100
AcDbEntity
  8
CUT
  6
Continuous
370
    15
100
AcDbCircle
 10
15.195326973
 20
8.8668826932
 30
0.0
 40
0.0625
100
AcDbArc
 50
90.0
 51
270.0
  0
LINE
  5
1B8
330
1F
100
AcDbEntity
  8
CUT
  6
Continuous
370
    15
100
AcDbLine
 10
15.507826973
 20
8.1793826932
 30
0.0
 11
15.195326973
 21
8.1793826932
 31
0.0
  0
ARC
  5
1B9
330
1F
100
AcDbEntity
  8
CUT
  6
Continuous
370
    15
100
AcDbCircle
 10
15.507826973
 20
8.2418826932
 30
0.0
 40
0.0625
100
AcDbArc
 50
270.0
 51
90.0
  0
LINE
  5
1BA
330
1F
100
AcDbEntity
  8
CUT
  6
Continuous
370
    15
100
AcDbLine
 10
15.195326973
 20
8.3043826932
 30
0.0
 11
15.507826973
 21
8.3043826932
 31
0.0
  0
ARC
  5
1BB
330
1F
100
AcDbEntity
  8
CUT
  6
Continuous
370
    15
100
AcDbCircle
 10
15.195326973
 20
8.2418826932
 30
0.0
 40
0.0625
100
AcDbArc
 50
90.0
 51
270.0
  0
LINE
  5
1BC
330
1F
100
AcDbEntity
  8
CUT
  6
Continuous
370
    15
100
AcDbLine
 10
17.257826973
 20
8.1793826932
 30
0.0
 11
16.945326973
 21
8.1793826932
 31
0.0
  0
ARC
  5
1BD
330
1F
100
AcDbEntity
  8
CUT
  6
Continuous
370
    15
100
AcDbCircle
 10
17.257826973
 20
8.2418826932
 30
0.0
 40
0.0625
100
AcDbArc
 50
270.0
 51
90.0
  0
LINE
  5
1BE
330
1F
100
AcDbEntity
  8
CUT
  6
Continuous
370
    15
100
AcDbLine
 10
16.945326973
 20
8.3043826932
 30
0.0
 11
17.257826973
 21
8.3043826932
 31
0.0
  0
ARC
  5
1BF
330
1F
100
AcDbEntity
  8
CUT
  6
Continuous
370
    15
100
AcDbCircle
 10
16.945326973
 20
8.2418826932
 30
0.0
 40
0.0625000000000018
100
AcDbArc
 50
90.0
 51
270.0
  0
LINE
  5
1C0
330
1F
100
AcDbEntity
  8
CUT
  6
Continuous
370
    15
100
AcDbLine
 10
17.257826973
 20
8.8043826932
 30
0.0
 11
16.945326973
 21
8.8043826932
 31
0.0
  0
ARC
  5
1C1
330
1F
100
AcDbEntity
  8
CUT
  6
Continuous
370
    15
100
AcDbCircle
 10
17.257826973
 20
8.8668826932
 30
0.0
 40
0.0625
100
AcDbArc
 50
270.0
 51
90.0
  0
LINE
  5
1C2
330
1F
100
AcDbEntity
  8
CUT
  6
Continuous
370
    15
100
AcDbLine
 10
16.945326973
 20
8.9293826932
 30
0.0
 11
17.257826973
 21
8.9293826932
 31
0.0
  0
ARC
  5
1C3
330
1F
100
AcDbEntity
  8
CUT
  6
Continuous
370
    15
100
AcDbCircle
 10
16.945326973
 20
8.8668826932
 30
0.0
 40
0.0625000000000018
100
AcDbArc
 50
90.0
 51
270.0
  0
LINE
  5
1C4
330
1F
100
AcDbEntity
  8
CUT
  6
Continuous
370
    15
100
AcDbLine
 10
14.9531692582
 20
11.4466278473
 30
0.0
 11
14.732198389
 21
11.2256569782
 31
0.0
  0
ARC
  5
1C5
330
1F
100
AcDbEntity
  8
CUT
  6
Continuous
370
    15
100
AcDbCircle
 10
14.7763925629
 20
11.1814628043
 30
0.0
 40
0.0624999999999993
100
AcDbArc
 50
135.0
 51
315.0
  0
LINE
  5
1C6
330
1F
100
AcDbEntity
  8
CUT
  6
Continuous
370
    15
100
AcDbLine
 10
14.8205867367
 20
11.1372686305
 30
0.0
 11
15.0415576058
 21
11.3582394996
 31
0.0
  0
ARC
  5
1C7
330
1F
100
AcDbEntity
  8
CUT
  6
Continuous
370
    15
100
AcDbCircle
 10
14.997363432
 20
11.4024336735
 30
0.0
 40
0.0625000000000018
100
AcDbArc
 50
315.0
 51
135.0
  0
LINE
  5
1C8
330
1F
100
AcDbEntity
  8
CUT
  6
Continuous
370
    15
100
AcDbLine
 10
13.684863432
 20
10.1783220211
 30
0.0
 11
13.4638925629
 21
9.957351152
 31
0.0
  0
ARC
  5
1C9
330
1F
100
AcDbEntity
  8
CUT
  6
Continuous
370
    15
100
AcDbCircle
 10
13.5080867367
 20
9.9131569782
 30
0.0
 40
0.0625000000000005
100
AcDbArc
 50
135.0
 51
315.0
  0
LINE
  5
1CA
330
1F
100
AcDbEntity
  8
CUT
  6
Continuous
370
    15
100
AcDbLine
 10
13.5522809105
 20
9.8689628043
 30
0.0
 11
13.7732517796
 21
10.0899336735
 31
0.0
  0
ARC
  5
1CB
330
1F
100
AcDbEntity
  8
CUT
  6
Continuous
370
    15
100
AcDbCircle
 10
13.7290576058
 20
10.1341278473
 30
0.0
 40
0.062499999999998
100
AcDbArc
 50
315.0
 51
135.0
  0
LINE
  5
1CC
330
1F
100
AcDbEntity
  8
CUT
  6
Continuous
370
    15
100
AcDbLine
 10
23.4604216937
 20
10.0981569782
 30
0.0
 11
23.4604216937
 21
9.1631569782
 31
0.0
  0
ARC
  5
1CD
330
1F
100
AcDbEntity
  8
CUT
  6
Continuous
370
    15
100
AcDbCircle
 10
23.5229216937
 20
9.1631569782
 30
0.0
 40
0.0625
100
AcDbArc
 50
180.0
 51
0.0
  0
LINE
  5
1CE
330
1F
100
AcDbEntity
  8
CUT
  6
Continuous
370
    15
100
AcDbLine
 10
23.5854216937
 20
9.1631569782
 30
0.0
 11
23.5854216937
 21
10.0981569782
 31
0.0
  0
ARC
  5
1CF
330
1F
100
AcDbEntity
  8
CUT
  6
Continuous
370
    15
100
AcDbCircle
 10
23.5229216937
 20
10.0981569782
 30
0.0
 40
0.0625
100
AcDbArc
 50
0.0
 51
180.0
  0
LINE
  5
1D0
330
1F
100
AcDbEntity
  8
CUT
  6
Continuous
370
    15
100
AcDbLine
 10
23.4604216937
 20
7.2881569782
 30
0.0
 11
23.4604216937
 21
6.3531569782
 31
0.0
  0
ARC
  5
1D1
330
1F
100
AcDbEntity
  8
CUT
  6
Continuous
370
    15
100
AcDbCircle
 10
23.5229216937
 20
6.3531569782
 30
0.0
 40
0.0625
100
AcDbArc
 50
180.0
 51
0.0
  0
LINE
  5
1D2
330
1F
100
AcDbEntity
  8
CUT
  6
Continuous
370
    15
100
AcDbLine
 10
23.5854216937
 20
6.3531569782
 30
0.0
 11
23.5854216937
 21
7.2881569782
 31
0.0
  0
ARC
  5
1D3
330
1F
100
AcDbEntity
  8
CUT
  6
Continuous
370
    15
100
AcDbCircle
 10
23.5229216937
 20
7.2881569782
 30
0.0
 40
0.0625
100
AcDbArc
 50
0.0
 51
180.0
  0
LINE
  5
1D4
330
1F
100
AcDbEntity
  8
CUT
  6
Continuous
370
    15
100
AcDbLine
 10
20.1166716937
 20
11.6006569782
 30
0.0
 11
19.8041716937
 21
11.6006569782
 31
0.0
  0
ARC
  5
1D5
330
1F
100
AcDbEntity
  8
CUT
  6
Continuous
370
    15
100
AcDbCircle
 10
19.8041716937
 20
11.5381569782
 30
0.0
 40
0.0625
100
AcDbArc
 50
90.0
 51
270.0
  0
LINE
  5
1D6
330
1F
100
AcDbEntity
  8
CUT
  6
Continuous
370
    15
100
AcDbLine
 10
19.8041716937
 20
11.4756569782
 30
0.0
 11
20.1166716937
 21
11.4756569782
 31
0.0
  0
ARC
  5
1D7
330
1F
100
AcDbEntity
  8
CUT
  6
Continuous
370
    15
100
AcDbCircle
 10
20.1166716937
 20
11.5381569782
 30
0.0
 40
0.0625000000000018
100
AcDbArc
 50
270.0
 51
90.0
  0
LINE
  5
1D8
330
1F
100
AcDbEntity
  8
CUT
  6
Continuous
370
    15
100
AcDbLine
 10
21.2957268118
 20
11.0694069782
 30
0.0
 11
21.2957268118
 21
11.3819069782
 31
0.0
  0
ARC
  5
1D9
330
1F
100
AcDbEntity
  8
CUT
  6
Continuous
370
    15
100
AcDbCircle
 10
21.2332268118
 20
11.3819069782
 30
0.0
 40
0.0625
100
AcDbArc
 50
0.0
 51
180.0
  0
LINE
  5
1DA
330
1F
100
AcDbEntity
  8
CUT
  6
Continuous
370
    15
100
AcDbLine
 10
21.1707268118
 20
11.3819069782
 30
0.0
 11
21.1707268118
 21
11.0694069782
 31
0.0
  0
ARC
  5
1DB
330
1F
100
AcDbEntity
  8
CUT
  6
Continuous
370
    15
100
AcDbCircle
 10
21.2332268118
 20
11.0694069782
 30
0.0
 40
0.0625000000000036
100
AcDbArc
 50
180.0
 51
0.0
  0
LINE
  5
1DC
330
1F
100
AcDbEntity
  8
CUT
  6
Continuous
370
    15
100
AcDbLine
 10
21.6082268118
 20
11.0694069782
 30
0.0
 11
21.6082268118
 21
11.3819069782
 31
0.0
  0
ARC
  5
1DD
330
1F
100
AcDbEntity
  8
CUT
  6
Continuous
370
    15
100
AcDbCircle
 10
21.5457268118
 20
11.3819069782
 30
0.0
 40
0.0625
100
AcDbArc
 50
0.0
 51
180.0
  0
LINE
  5
1DE
330
1F
100
AcDbEntity
  8
CUT
  6
Continuous
370
    15
100
AcDbLine
 10
21.4832268118
 20
11.3819069782
 30
0.0
 11
21.4832268118
 21
11.0694069782
 31
0.0
  0
ARC
  5
1DF
330
1F
100
AcDbEntity
  8
CUT
  6
Continuous
370
    15
100
AcDbCircle
 10
21.5457268118
 20
11.0694069782
 30
0.0
 40
0.0625000000000036
100
AcDbArc
 50
180.0
 51
0.0
  0
LINE
  5
1E0
330
1F
100
AcDbEntity
  8
CUT
  6
Continuous
370
    15
100
AcDbLine
 10
19.6479216937
 20
7.3506569782
 30
0.0
 11
19.6479216937
 21
7.0381569782
 31
0.0
  0
ARC
  5
1E1
330
1F
100
AcDbEntity
  8
CUT
  6
Continuous
370
    15
100
AcDbCircle
 10
19.7104216937
 20
7.0381569782
 30
0.0
 40
0.0625
100
AcDbArc
 50
180.0
 51
0.0
  0
LINE
  5
1E2
330
1F
100
AcDbEntity
  8
CUT
  6
Continuous
370
    15
100
AcDbLine
 10
19.7729216937
 20
7.0381569782
 30
0.0
 11
19.7729216937
 21
7.3506569782
 31
0.0
  0
ARC
  5
1E3
330
1F
100
AcDbEntity
  8
CUT
  6
Continuous
370
    15
100
AcDbCircle
 10
19.7104216937
 20
7.3506569782
 30
0.0
 40
0.0625000000000036
100
AcDbArc
 50
0.0
 51
180.0
  0
LINE
  5
1E4
330
1F
100
AcDbEntity
  8
CUT
  6
Continuous
370
    15
100
AcDbLine
 10
19.6479216937
 20
6.0381569782
 30
0.0
 11
19.6479216937
 21
5.7256569782
 31
0.0
  0
ARC
  5
1E5
330
1F
100
AcDbEntity
  8
CUT
  6
Continuous
370
    15
100
AcDbCircle
 10
19.7104216937
 20
5.7256569782
 30
0.0
 40
0.0625000000000036
100
AcDbArc
 50
180.0
 51
0.0
  0
LINE
  5
1E6
330
1F
100
AcDbEntity
  8
CUT
  6
Continuous
370
    15
100
AcDbLine
 10
19.7729216937
 20
5.7256569782
 30
0.0
 11
19.7729216937
 21
6.0381569782
 31
0.0
  0
ARC
  5
1E7
330
1F
100
AcDbEntity
  8
CUT
  6
Continuous
370
    15
100
AcDbCircle
 10
19.7104216937
 20
6.0381569782
 30
0.0
 40
0.0625000000000036
100
AcDbArc
 50
0.0
 51
180.0
  0
LINE
  5
1E8
330
1F
100
AcDbEntity
  8
CUT
  6
Continuous
370
    15
100
AcDbLine
 10
19.0229216937
 20
7.3506569782
 30
0.0
 11
19.0229216937
 21
7.0381569782
 31
0.0
  0
ARC
  5
1E9
330
1F
100
AcDbEntity
  8
CUT
  6
Continuous
370
    15
100
AcDbCircle
 10
19.0854216937
 20
7.0381569782
 30
0.0
 40
0.0625000000000036
100
AcDbArc
 50
180.0
 51
0.0
  0
LINE
  5
1EA
330
1F
100
AcDbEntity
  8
CUT
  6
Continuous
370
    15
100
AcDbLine
 10
19.1479216937
 20
7.0381569782
 30
0.0
 11
19.1479216937
 21
7.3506569782
 31
0.0
  0
ARC
  5
1EB
330
1F
100
AcDbEntity
  8
CUT
  6
Continuous
370
    15
100
AcDbCircle
 10
19.0854216937
 20
7.3506569782
 30
0.0
 40
0.0625000000000036
100
AcDbArc
 50
0.0
 51
180.0
  0
LINE
  5
1EC
330
1F
100
AcDbEntity
  8
CUT
  6
Continuous
370
    15
100
AcDbLine
 10
19.0229216937
 20
6.0381569782
 30
0.0
 11
19.0229216937
 21
5.7256569782
 31
0.0
  0
ARC
  5
1ED
330
1F
100
AcDbEntity
  8
CUT
  6
Continuous
370
    15
100
AcDbCircle
 10
19.0854216937
 20
5.7256569782
 30
0.0
 40
0.0625000000000036
100
AcDbArc
 50
180.0
 51
0.0
  0
LINE
  5
1EE
330
1F
100
AcDbEntity
  8
CUT
  6
Continuous
370
    15
100
AcDbLine
 10
19.1479216937
 20
5.7256569782
 30
0.0
 11
19.1479216937
 21
6.0381569782
 31
0.0
  0
ARC
  5
1EF
330
1F
100
AcDbEntity
  8
CUT
  6
Continuous
370
    15
100
AcDbCircle
 10
19.0854216937
 20
6.0381569782
 30
0.0
 40
0.0625000000000036
100
AcDbArc
 50
0.0
 51
180.0
  0
LINE
  5
1F0
330
1F
100
AcDbEntity
  8
CUT
  6
Continuous
370
    15
100
AcDbLine
 10
17.8979216937
 20
7.3506569782
 30
0.0
 11
17.8979216937
 21
7.0381569782
 31
0.0
  0
ARC
  5
1F1
330
1F
100
AcDbEntity
  8
CUT
  6
Continuous
370
    15
100
AcDbCircle
 10
17.9604216937
 20
7.0381569782
 30
0.0
 40
0.0625
100
AcDbArc
 50
180.0
 51
0.0
  0
LINE
  5
1F2
330
1F
100
AcDbEntity
  8
CUT
  6
Continuous
370
    15
100
AcDbLine
 10
18.0229216937
 20
7.0381569782
 30
0.0
 11
18.0229216937
 21
7.3506569782
 31
0.0
  0
ARC
  5
1F3
330
1F
100
AcDbEntity
  8
CUT
  6
Continuous
370
    15
100
AcDbCircle
 10
17.9604216937
 20
7.3506569782
 30
0.0
 40
0.0625000000000036
100
AcDbArc
 50
0.0
 51
180.0
  0
LINE
  5
1F4
330
1F
100
AcDbEntity
  8
CUT
  6
Continuous
370
    15
100
AcDbLine
 10
17.8979216937
 20
6.0381569782
 30
0.0
 11
17.8979216937
 21
5.7256569782
 31
0.0
  0
ARC
  5
1F5
330
1F
100
AcDbEntity
  8
CUT
  6
Continuous
370
    15
100
AcDbCircle
 10
17.9604216937
 20
5.7256569782
 30
0.0
 40
0.0625
100
AcDbArc
 50
180.0
 51
0.0
  0
LINE
  5
1F6
330
1F
100
AcDbEntity
  8
CUT
  6
Continuous
370
    15
100
AcDbLine
 10
18.0229216937
 20
5.7256569782
 30
0.0
 11
18.0229216937
 21
6.0381569782
 31
0.0
  0
ARC
  5
1F7
330
1F
100
AcDbEntity
  8
CUT
  6
Continuous
370
    15
100
AcDbCircle
 10
17.9604216937
 20
6.0381569782
 30
0.0
 40
0.0625
100
AcDbArc
 50
0.0
 51
180.0
  0
ARC
  5
1F8
330
1F
100
AcDbEntity
  8
CUT
  6
Continuous
370
    15
100
AcDbCircle
 10
14.3207810968
 20
8.7256569782
 30
0.0
 40
0.3749999999999994
100
AcDbArc
 50
179.8138882138
 51
0.1861117862
  0
ENDSEC
  0
SECTION
  2
OBJECTS
  0
DICTIONARY
  5
C
330
0
100
AcDbDictionary
281
     1
  3
ACAD_GROUP
350
D
  3
ACAD_LAYOUT
350
1A
  3
ACAD_MLINESTYLE
350
17
  3
ACAD_PLOTSETTINGS
350
19
  3
ACAD_PLOTSTYLENAME
350
E
  3
ACAD_SCALELIST
350
47
  0
DICTIONARY
  5
D
102
{ACAD_REACTORS
330
C
102
}
330
C
100
AcDbDictionary
281
     1
  0
DICTIONARY
  5
1A
102
{ACAD_REACTORS
330
C
102
}
330
C
100
AcDbDictionary
281
     1
  3
Layout1
350
1E
  3
Layout2
350
26
  3
Model
350
22
  0
DICTIONARY
  5
17
102
{ACAD_REACTORS
330
C
102
}
330
C
100
AcDbDictionary
281
     1
  3
Standard
350
18
  0
DICTIONARY
  5
19
102
{ACAD_REACTORS
330
C
102
}
330
C
100
AcDbDictionary
281
     1
  0
ACDBDICTIONARYWDFLT
  5
E
102
{ACAD_REACTORS
330
C
102
}
330
C
100
AcDbDictionary
281
     1
  3
Normal
350
F
100
AcDbDictionaryWithDefault
340
F
  0
DICTIONARY
  5
47
102
{ACAD_REACTORS
330
C
102
}
330
C
100
AcDbDictionary
281
     1
  3
A0
350
48
  3
A1
350
49
  3
A2
350
4A
  3
A3
350
4B
  3
A4
350
4C
  3
A5
350
4D
  3
A6
350
4E
  3
A7
350
4F
  3
A8
350
50
  3
A9
350
51
  3
B0
350
52
  3
B1
350
53
  3
B2
350
54
  3
B3
350
55
  3
B4
350
56
  3
B5
350
57
  3
B6
350
58
  3
B7
350
59
  3
B8
350
5A
  3
B9
350
5B
  3
C0
350
5C
  3
C1
350
5D
  3
C2
350
5E
  3
C3
350
5F
  3
C4
350
60
  3
C5
350
61
  3
C6
350
62
  3
C7
350
63
  3
C8
350
64
  3
C9
350
65
  3
D0
350
66
  3
D1
350
67
  3
D2
350
68
  0
LAYOUT
  5
1E
102
{ACAD_REACTORS
330
1A
102
}
330
1A
100
AcDbPlotSettings
  1

  2
none_device
  4

  6

 40
0.0
 41
0.0
 42
0.0
 43
0.0
 44
0.0
 45
0.0
 46
0.0
 47
0.0
 48
0.0
 49
0.0
140
0.0
141
0.0
142
1.0
143
1.0
 70
   688
 72
     0
 73
     0
 74
     5
  7

 75
    16
147
1.0
148
0.0
149
0.0
100
AcDbLayout
  1
Layout1
 70
     1
 71
     1
 10
0.0
 20
0.0
 11
12.0
 21
9.0
 12
0.0
 22
0.0
 32
0.0
 14
1.0000000000E+20
 24
1.0000000000E+20
 34
1.0000000000E+20
 15
-1.0000000000E+20
 25
-1.0000000000E+20
 35
-1.0000000000E+20
146
0.0
 13
0.0
 23
0.0
 33
0.0
 16
1.0
 26
0.0
 36
0.0
 17
0.0
 27
1.0
 37
0.0
 76
     0
330
1B
  0
LAYOUT
  5
26
102
{ACAD_REACTORS
330
1A
102
}
330
1A
100
AcDbPlotSettings
  1

  2
none_device
  4

  6

 40
0.0
 41
0.0
 42
0.0
 43
0.0
 44
0.0
 45
0.0
 46
0.0
 47
0.0
 48
0.0
 49
0.0
140
0.0
141
0.0
142
1.0
143
1.0
 70
   688
 72
     0
 73
     0
 74
     5
  7

 75
    16
147
1.0
148
0.0
149
0.0
100
AcDbLayout
  1
Layout2
 70
     1
 71
     2
 10
0.0
 20
0.0
 11
0.0
 21
0.0
 12
0.0
 22
0.0
 32
0.0
 14
0.0
 24
0.0
 34
0.0
 15
0.0
 25
0.0
 35
0.0
146
0.0
 13
0.0
 23
0.0
 33
0.0
 16
1.0
 26
0.0
 36
0.0
 17
0.0
 27
1.0
 37
0.0
 76
     0
330
23
  0
LAYOUT
  5
22
102
{ACAD_REACTORS
330
1A
102
}
330
1A
100
AcDbPlotSettings
  1

  2
none_device
  4
Letter_(8.50_x_11.00_Inches)
  6

 40
6.35
 41
6.35
 42
6.35000508
 43
6.35000508
 44
215.9
 45
279.4
 46
0.0
 47
0.0
 48
0.0
 49
0.0
140
0.0
141
0.0
142
1.0
143
1.0
 70
  1712
 72
     0
 73
     0
 74
     0
  7

 75
     0
147
1.0
148
0.0
149
0.0
100
AcDbLayout
  1
Model
 70
     1
 71
     0
 10
0.0
 20
0.0
 11
24.0
 21
12.0
 12
0.0
 22
0.0
 32
0.0
 14
0.0
 24
0.0
 34
0.0
 15
24.0
 25
12.0
 35
0.0
146
0.0
 13
0.0
 23
0.0
 33
0.0
 16
1.0
 26
0.0
 36
0.0
 17
0.0
 27
1.0
 37
0.0
 76
     0
330
1F
331
29
  0
MLINESTYLE
  5
18
102
{ACAD_REACTORS
330
17
102
}
330
17
100
AcDbMlineStyle
  2
Standard
 70
     0
  3

 62
   256
 51
90.0
 52
90.0
 71
     2
 49
0.5
 62
   256
  6
BYLAYER
 49
-0.5
 62
   256
  6
BYLAYER
  0
ACDBPLACEHOLDER
  5
F
102
{ACAD_REACTORS
330
E
102
}
330
E
  0
SCALE
  5
48
102
{ACAD_REACTORS
330
47
102
}
330
47
100
AcDbScale
 70
     0
300
1:1
140
1.0
141
1.0
290
     1
  0
SCALE
  5
49
102
{ACAD_REACTORS
330
47
102
}
330
47
100
AcDbScale
 70
     0
300
1:2
140
1.0
141
2.0
290
     0
  0
SCALE
  5
4A
102
{ACAD_REACTORS
330
47
102
}
330
47
100
AcDbScale
 70
     0
300
1:4
140
1.0
141
4.0
290
     0
  0
SCALE
  5
4B
102
{ACAD_REACTORS
330
47
102
}
330
47
100
AcDbScale
 70
     0
300
1:5
140
1.0
141
5.0
290
     0
  0
SCALE
  5
4C
102
{ACAD_REACTORS
330
47
102
}
330
47
100
AcDbScale
 70
     0
300
1:8
140
1.0
141
8.0
290
     0
  0
SCALE
  5
4D
102
{ACAD_REACTORS
330
47
102
}
330
47
100
AcDbScale
 70
     0
300
1:10
140
1.0
141
10.0
290
     0
  0
SCALE
  5
4E
102
{ACAD_REACTORS
330
47
102
}
330
47
100
AcDbScale
 70
     0
300
1:16
140
1.0
141
16.0
290
     0
  0
SCALE
  5
4F
102
{ACAD_REACTORS
330
47
102
}
330
47
100
AcDbScale
 70
     0
300
1:20
140
1.0
141
20.0
290
     0
  0
SCALE
  5
50
102
{ACAD_REACTORS
330
47
102
}
330
47
100
AcDbScale
 70
     0
300
1:30
140
1.0
141
30.0
290
     0
  0
SCALE
  5
51
102
{ACAD_REACTORS
330
47
102
}
330
47
100
AcDbScale
 70
     0
300
1:40
140
1.0
141
40.0
290
     0
  0
SCALE
  5
52
102
{ACAD_REACTORS
330
47
102
}
330
47
100
AcDbScale
 70
     0
300
1:50
140
1.0
141
50.0
290
     0
  0
SCALE
  5
53
102
{ACAD_REACTORS
330
47
102
}
330
47
100
AcDbScale
 70
     0
300
1:100
140
1.0
141
100.0
290
     0
  0
SCALE
  5
54
102
{ACAD_REACTORS
330
47
102
}
330
47
100
AcDbScale
 70
     0
300
2:1
140
2.0
141
1.0
290
     0
  0
SCALE
  5
55
102
{ACAD_REACTORS
330
47
102
}
330
47
100
AcDbScale
 70
     0
300
4:1
140
4.0
141
1.0
290
     0
  0
SCALE
  5
56
102
{ACAD_REACTORS
330
47
102
}
330
47
100
AcDbScale
 70
     0
300
8:1
140
8.0
141
1.0
290
     0
  0
SCALE
  5
57
102
{ACAD_REACTORS
330
47
102
}
330
47
100
AcDbScale
 70
     0
300
10:1
140
10.0
141
1.0
290
     0
  0
SCALE
  5
58
102
{ACAD_REACTORS
330
47
102
}
330
47
100
AcDbScale
 70
     0
300
100:1
140
100.0
141
1.0
290
     0
  0
SCALE
  5
59
102
{ACAD_REACTORS
330
47
102
}
330
47
100
AcDbScale
 70
     0
300
1/128" = 1'-0"
140
0.0078125
141
12.0
290
     0
  0
SCALE
  5
5A
102
{ACAD_REACTORS
330
47
102
}
330
47
100
AcDbScale
 70
     0
300
1/64" = 1'-0"
140
0.015625
141
12.0
290
     0
  0
SCALE
  5
5B
102
{ACAD_REACTORS
330
47
102
}
330
47
100
AcDbScale
 70
     0
300
1/32" = 1'-0"
140
0.03125
141
12.0
290
     0
  0
SCALE
  5
5C
102
{ACAD_REACTORS
330
47
102
}
330
47
100
AcDbScale
 70
     0
300
1/16" = 1'-0"
140
0.0625
141
12.0
290
     0
  0
SCALE
  5
5D
102
{ACAD_REACTORS
330
47
102
}
330
47
100
AcDbScale
 70
     0
300
3/32" = 1'-0"
140
0.09375
141
12.0
290
     0
  0
SCALE
  5
5E
102
{ACAD_REACTORS
330
47
102
}
330
47
100
AcDbScale
 70
     0
300
1/8" = 1'-0"
140
0.125
141
12.0
290
     0
  0
SCALE
  5
5F
102
{ACAD_REACTORS
330
47
102
}
330
47
100
AcDbScale
 70
     0
300
3/16" = 1'-0"
140
0.1875
141
12.0
290
     0
  0
SCALE
  5
60
102
{ACAD_REACTORS
330
47
102
}
330
47
100
AcDbScale
 70
     0
300
1/4" = 1'-0"
140
0.25
141
12.0
290
     0
  0
SCALE
  5
61
102
{ACAD_REACTORS
330
47
102
}
330
47
100
AcDbScale
 70
     0
300
3/8" = 1'-0"
140
0.375
141
12.0
290
     0
  0
SCALE
  5
62
102
{ACAD_REACTORS
330
47
102
}
330
47
100
AcDbScale
 70
     0
300
1/2" = 1'-0"
140
0.5
141
12.0
290
     0
  0
SCALE
  5
63
102
{ACAD_REACTORS
330
47
102
}
330
47
100
AcDbScale
 70
     0
300
3/4" = 1'-0"
140
0.75
141
12.0
290
     0
  0
SCALE
  5
64
102
{ACAD_REACTORS
330
47
102
}
330
47
100
AcDbScale
 70
     0
300
1" = 1'-0"
140
1.0
141
12.0
290
     0
  0
SCALE
  5
65
102
{ACAD_REACTORS
330
47
102
}
330
47
100
AcDbScale
 70
     0
300
1-1/2" = 1'-0"
140
1.5
141
12.0
290
     0
  0
SCALE
  5
66
102
{ACAD_REACTORS
330
47
102
}
330
47
100
AcDbScale
 70
     0
300
3" = 1'-0"
140
3.0
141
12.0
290
     0
  0
SCALE
  5
67
102
{ACAD_REACTORS
330
47
102
}
330
47
100
AcDbScale
 70
     0
300
6" = 1'-0"
140
6.0
141
12.0
290
     0
  0
SCALE
  5
68
102
{ACAD_REACTORS
330
47
102
}
330
47
100
AcDbScale
 70
     0
300
1'-0" = 1'-0"
140
12.0
141
12.0
290
     0
  0
ENDSEC
  0
EOF
